<?xml version="1.0" standalone="no"?>
<!DOCTYPE svg PUBLIC "-//W3C//DTD SVG 20010904//EN"
 "http://www.w3.org/TR/2001/REC-SVG-20010904/DTD/svg10.dtd">
<svg version="1.0" xmlns="http://www.w3.org/2000/svg"
 width="1024.000000pt" height="1024.000000pt" viewBox="0 0 1024.000000 1024.000000"
 preserveAspectRatio="xMidYMid meet">

<g transform="translate(0.000000,1024.000000) scale(0.100000,-0.100000)"
fill="#000000" stroke="none">
<path d="M0 5120 l0 -5120 5120 0 5120 0 0 5120 0 5120 -5120 0 -5120 0 0
-5120z m4520 3941 c22 -43 -3 -89 -58 -106 -53 -16 -82 57 -40 102 28 29 83
32 98 4z m-843 -60 c27 -38 56 -83 65 -100 l17 -31 88 0 88 1 48 69 c27 37 61
79 75 92 l26 23 -15 -25 c-9 -14 -35 -57 -58 -97 l-42 -72 62 -98 c34 -54 63
-100 65 -102 2 -2 79 -5 171 -6 158 -3 213 -9 213 -24 0 -3 -84 -8 -188 -10
-107 -2 -192 -7 -200 -13 -7 -6 -35 -51 -62 -99 l-50 -89 21 -43 c12 -23 37
-67 55 -98 33 -55 43 -89 26 -89 -8 0 -122 195 -122 209 0 3 -47 6 -105 6 -60
0 -105 -4 -105 -10 0 -5 -25 -48 -55 -96 -30 -48 -55 -90 -55 -95 0 -15 123
-214 132 -214 13 0 127 67 234 138 52 34 100 62 106 62 7 0 46 22 87 49 42 26
135 79 206 116 72 37 141 75 155 85 14 10 41 24 60 32 30 13 154 84 378 217
29 17 57 31 62 31 5 0 13 7 18 16 8 15 12 15 33 1 13 -8 101 -55 194 -105 209
-111 280 -150 510 -281 99 -57 236 -135 305 -174 69 -39 137 -79 153 -89 l27
-19 0 303 c0 167 4 309 9 317 5 8 16 11 26 7 17 -6 18 -29 13 -326 -4 -258 -3
-322 8 -331 7 -6 62 -39 121 -73 59 -35 153 -90 207 -124 55 -34 101 -61 102
-59 1 1 -2 29 -7 61 -8 64 -6 76 17 76 11 0 14 -16 14 -74 0 -84 -5 -79 125
-147 70 -37 183 -102 500 -287 94 -54 231 -134 305 -176 139 -79 227 -131 419
-248 61 -38 115 -68 121 -68 13 0 11 115 10 -1017 l-1 -972 27 -7 c15 -4 210
-5 433 -2 223 3 412 3 419 1 16 -6 16 -38 -1 -51 -14 -12 -293 -23 -630 -25
l-237 -2 0 -56 0 -57 43 5 c77 9 116 23 122 43 8 25 23 26 32 3 16 -43 58 -45
67 -3 7 38 24 39 18 1 -3 -24 0 -29 24 -35 20 -5 515 -18 612 -16 16 0 16 -36
0 -47 -7 -4 -166 -13 -353 -19 -187 -6 -348 -14 -357 -19 -10 -4 -18 -18 -18
-30 0 -13 -4 -26 -9 -29 -10 -6 -34 42 -26 54 6 10 -45 20 -105 20 -34 0 -50
-4 -54 -16 -7 -18 -8 -109 -1 -115 2 -3 39 -1 82 4 169 19 473 4 473 -24 0
-14 -63 -39 -99 -39 -52 0 -81 -10 -81 -27 0 -14 -3 -14 -22 -1 -15 10 -67 18
-148 23 -165 10 -188 10 -197 1 -5 -4 -11 -175 -14 -379 -4 -205 -7 -373 -8
-375 0 -2 -7 3 -14 10 -10 10 -13 95 -13 376 -1 199 -3 364 -5 366 -2 2 -17 2
-32 -1 -21 -4 -29 -13 -34 -36 l-6 -31 -13 45 c-23 75 -21 79 36 79 l51 0 -3
68 c-3 60 -5 67 -24 70 -12 2 -29 -4 -37 -12 -14 -15 -16 -14 -22 4 -7 22 -49
28 -60 9 -4 -5 -6 -101 -6 -212 1 -111 -1 -305 -5 -430 l-7 -229 -49 -26 c-28
-15 -99 -57 -158 -94 -60 -37 -133 -79 -162 -94 -29 -15 -71 -39 -93 -54 -73
-50 -366 -222 -440 -258 -16 -8 -111 -63 -210 -122 -225 -134 -390 -230 -525
-305 -147 -82 -273 -156 -355 -208 -38 -25 -147 -90 -242 -145 -94 -56 -190
-113 -214 -127 -23 -15 -101 -61 -173 -102 -72 -42 -150 -89 -174 -105 -23
-16 -76 -45 -117 -63 l-74 -34 -93 45 c-51 25 -107 57 -125 70 -17 13 -34 24
-37 24 -3 0 -88 50 -188 111 -254 155 -359 217 -463 275 -109 61 -366 211
-740 434 -154 91 -392 233 -530 315 -137 81 -281 167 -320 190 -84 51 -192
113 -260 150 -123 67 -152 86 -175 110 l-25 27 -3 1169 -2 1169 -30 0 -30 0
-1 -252 c-1 -139 -3 -675 -5 -1190 l-3 -937 46 -40 c26 -22 83 -59 127 -84
150 -83 630 -366 706 -417 30 -20 132 -78 225 -130 94 -51 206 -116 250 -145
44 -29 166 -101 270 -160 105 -59 213 -122 240 -140 28 -18 83 -52 124 -76
132 -78 226 -133 280 -164 28 -16 132 -79 229 -139 97 -60 203 -124 234 -141
31 -18 88 -54 127 -79 89 -58 145 -86 168 -86 20 0 81 33 253 135 242 143 324
192 423 250 57 33 175 104 263 158 170 105 407 244 569 335 55 31 174 99 265
153 91 53 233 134 315 179 83 46 184 104 225 130 41 26 125 75 185 110 61 35
166 98 235 140 69 42 161 98 205 124 129 76 127 74 135 152 l7 69 2 -67 c0
-37 6 -70 11 -73 24 -15 3 -35 -102 -95 -62 -35 -153 -89 -203 -120 -49 -31
-139 -85 -200 -120 -60 -34 -164 -97 -230 -140 -66 -43 -167 -102 -225 -132
-109 -56 -359 -212 -372 -232 -10 -14 -3 -1332 7 -1402 6 -47 5 -53 -16 -68
-34 -23 -65 -20 -88 10 -26 33 -27 78 -2 101 17 17 19 50 24 670 2 358 2 654
-1 657 -5 6 -131 -60 -197 -104 -22 -15 -87 -53 -143 -86 l-104 -59 6 -105 c3
-58 9 -253 12 -435 6 -301 8 -332 25 -354 23 -29 25 -79 4 -108 -24 -34 -77
-47 -113 -29 -34 17 -42 34 -42 82 0 28 6 38 30 52 l30 17 0 423 c0 285 -3
422 -10 422 -16 0 -84 -36 -155 -83 -79 -52 -247 -154 -380 -231 -55 -32 -138
-82 -185 -111 -47 -29 -123 -74 -170 -100 -47 -26 -131 -76 -187 -111 -55 -35
-104 -64 -108 -64 -3 0 -54 31 -113 69 -136 87 -273 171 -348 214 -33 19 -123
73 -201 121 -78 47 -146 85 -150 85 -14 -4 -48 14 -74 37 -25 24 -246 154
-261 154 -4 0 -8 -211 -8 -468 0 -381 3 -474 14 -498 26 -54 27 -70 6 -96 -11
-14 -32 -29 -46 -32 -56 -14 -97 67 -60 119 14 20 23 289 28 800 l2 210 -90
58 c-148 96 -378 227 -384 219 -4 -4 -4 -351 -1 -772 l6 -765 34 -47 c29 -40
33 -51 27 -84 -8 -40 -54 -94 -81 -94 -56 0 -115 61 -115 117 1 36 32 99 48
95 9 -1 12 186 12 797 l0 800 -25 18 c-26 19 -73 47 -500 300 -472 280 -596
355 -697 420 -89 57 -116 83 -88 83 7 0 10 373 10 1098 l0 1098 -35 -4 -35 -4
-2 -882 c-2 -484 -2 -981 -1 -1103 1 -202 -4 -252 -21 -207 -3 9 -6 339 -6
734 0 671 -1 720 -17 729 -17 9 -17 10 0 28 15 18 17 51 17 361 0 189 -4 343
-9 346 -12 8 -37 8 -306 3 -205 -5 -249 -2 -273 18 -1 1 0 8 3 16 4 11 37 14
163 14 86 0 216 2 287 5 l130 5 3 51 c3 50 2 51 -29 58 -17 3 -58 6 -91 6 -50
0 -63 -4 -78 -22 -18 -22 -19 -22 -14 -2 6 21 3 21 -270 28 -206 6 -285 5
-313 -5 -32 -10 -38 -10 -50 7 -16 23 -16 35 0 58 13 17 34 19 325 17 172 -1
312 0 312 3 0 3 -20 14 -44 25 -24 11 -46 27 -49 34 -3 8 -27 17 -57 20 -29 4
-58 11 -65 17 -8 7 -120 11 -316 12 -247 2 -316 -1 -369 -14 -74 -18 -83 -16
-99 19 -9 21 -9 30 4 49 14 21 20 23 63 17 60 -9 210 -8 587 2 330 9 324 7
325 71 0 32 0 32 -62 38 -35 3 -138 5 -230 5 -181 -1 -203 2 -218 32 -18 32
28 43 170 40 69 -1 168 1 221 4 l96 7 36 81 c19 45 38 89 41 97 3 8 4 4 2 -10
-2 -14 -15 -55 -30 -92 l-26 -68 117 0 116 0 -7 164 -7 163 45 13 c24 6 78 36
120 66 42 30 98 64 124 76 26 12 61 32 79 45 18 13 63 40 100 59 61 32 147 82
210 120 l22 14 -38 57 c-58 89 -73 122 -66 150 3 14 28 64 55 113 28 48 50 95
50 103 0 8 -25 52 -55 97 -30 45 -55 89 -55 98 0 10 25 67 57 128 l56 110 -30
45 c-16 24 -43 67 -58 96 l-29 51 57 112 c51 100 55 114 43 133 -31 51 -76
137 -71 137 2 0 24 -33 47 -72 l43 -73 123 3 123 3 27 44 c15 24 44 75 65 114
l37 71 133 0 133 0 19 33 c10 17 43 69 72 115 l53 82 105 0 104 0 48 -69z
m2091 -64 c3 -28 -27 -67 -52 -67 -26 0 -47 31 -44 64 6 63 89 66 96 3z m1072
-27 c40 -40 16 -100 -40 -100 -48 0 -81 75 -48 108 19 19 66 14 88 -8z m-5480
-60 c-6 -11 -13 -20 -16 -20 -2 0 0 9 6 20 6 11 13 20 16 20 2 0 0 -9 -6 -20z
m5019 6 c7 -8 11 -34 9 -57 -2 -32 -9 -47 -31 -63 -26 -19 -30 -19 -55 -5 -22
12 -28 23 -30 61 -2 32 2 50 13 62 20 20 78 21 94 2z m-3864 -26 c-3 -5 1 -24
10 -42 16 -33 16 -33 -2 -10 -18 22 -22 22 -148 16 -101 -5 -133 -10 -142 -22
-14 -17 -18 -5 -5 14 4 7 59 15 139 19 98 5 133 11 137 21 3 8 8 14 11 14 4 0
3 -4 0 -10z m-1555 -50 c6 -11 8 -20 6 -20 -3 0 -10 9 -16 20 -6 11 -8 20 -6
20 3 0 10 -9 16 -20z m329 -55 c-23 -51 -23 -52 58 -182 l44 -71 -27 -54 c-14
-29 -42 -79 -61 -111 l-35 -58 61 -101 62 -101 -21 -51 c-11 -28 -30 -62 -40
-76 -11 -14 -4 7 15 47 41 82 43 68 -35 191 -28 42 -50 83 -50 90 0 8 8 26 18
40 36 51 92 159 92 176 0 10 -25 60 -56 112 l-57 95 -113 -6 c-70 -3 -115 -1
-119 5 -4 6 37 10 112 10 l119 0 22 45 c28 58 37 58 11 0z m5533 -50 c-4 -72
-22 -90 -22 -22 0 23 -3 52 -6 65 -5 17 -2 22 12 22 17 0 19 -7 16 -65z m312
-14 c2 -33 -1 -41 -15 -41 -10 0 -21 5 -24 10 -3 6 -1 10 4 10 18 0 12 18 -6
23 -14 4 -12 5 5 6 20 1 33 21 13 21 -27 0 -41 -15 -41 -41 0 -29 -15 -40 -22
-17 -9 27 5 56 35 70 40 18 49 10 51 -41z m294 6 c4 -41 -14 -56 -45 -38 -17
10 -17 10 0 11 9 0 17 5 17 10 0 6 -4 10 -10 10 -14 0 -12 37 3 43 23 10 32 0
35 -36z m272 39 c0 -2 -7 -17 -15 -32 l-15 -29 0 26 c0 14 3 29 7 32 7 8 23 9
23 3z m201 -9 c-1 -4 -1 -25 -1 -48 0 -22 -4 -38 -8 -35 -5 3 -6 20 -4 38 4
29 3 31 -10 20 -9 -7 -14 -21 -11 -32 3 -11 0 -20 -6 -20 -19 0 -13 68 7 79
18 11 34 10 33 -2z m-1121 -48 c0 -21 -4 -39 -10 -39 -5 0 -10 21 -10 46 0 27
4 43 10 39 6 -3 10 -24 10 -46z m242 34 c2 -10 2 -28 0 -40 -3 -18 -11 -23
-37 -23 -29 0 -32 2 -27 25 5 28 22 34 22 8 0 -15 2 -16 10 -3 17 26 12 42
-11 35 -15 -5 -19 -4 -15 4 11 18 54 13 58 -6z m208 7 c0 -5 -4 -10 -10 -10
-16 0 -11 -32 8 -46 15 -12 14 -13 -15 -14 -32 0 -33 1 -33 40 0 36 3 40 25
40 14 0 25 -4 25 -10z m588 -37 c3 -37 0 -43 -17 -43 -33 0 -51 11 -51 32 0
34 20 59 43 56 18 -2 23 -11 25 -45z m147 20 c-2 -16 -4 -34 -4 -40 -1 -7 -5
-13 -11 -13 -11 0 -13 39 -4 64 10 26 23 18 19 -11z m-630 -15 c1 -25 -3 -28
-31 -28 -41 0 -48 10 -28 39 23 32 59 25 59 -11z m183 20 c-2 -7 -12 -16 -23
-20 -17 -5 -16 -6 7 -7 41 -2 45 -21 4 -21 -33 0 -36 2 -36 30 0 25 4 30 25
30 15 0 24 -5 23 -12z m-6569 -109 l-62 -92 33 -66 c17 -36 45 -87 62 -113
l30 -48 122 -2 121 -2 -122 -3 -122 -4 -36 -64 c-20 -36 -38 -65 -41 -65 -3 0
11 29 31 64 41 74 44 61 -39 195 l-45 74 -138 0 -138 -1 128 7 c70 4 131 12
136 17 22 24 131 195 132 206 0 9 2 10 5 1 3 -6 -23 -53 -57 -104z m7048 69
c-3 -8 -6 -5 -6 6 -1 11 2 17 5 13 3 -3 4 -12 1 -19z m-311 -13 c13 -13 13
-15 1 -15 -8 0 -17 7 -21 15 -3 8 -3 15 0 15 3 0 12 -7 20 -15z m-5566 -110
c0 -5 -5 -3 -10 5 -5 8 -10 20 -10 25 0 6 5 3 10 -5 5 -8 10 -19 10 -25z
m4700 -45 c0 -49 -4 -70 -12 -70 -9 0 -12 19 -11 67 1 38 2 69 3 71 0 1 5 2
10 2 6 0 10 -30 10 -70z m1580 38 c27 -45 25 -68 -10 -108 -32 -39 -42 -23
-10 17 25 32 25 39 1 86 -23 46 -8 49 19 5z m-1163 -4 c-36 -33 -35 -82 3
-101 21 -11 22 -13 6 -13 -28 0 -56 29 -56 59 0 25 44 81 64 81 6 0 -2 -12
-17 -26z m-460 -76 c-2 -18 -4 -4 -4 32 0 36 2 50 4 33 2 -18 2 -48 0 -65z
m933 73 c0 -10 -10 -22 -22 -26 l-23 -8 22 -4 c19 -4 21 -8 13 -23 -7 -13 -6
-20 3 -23 6 -2 8 -8 4 -13 -12 -13 -40 9 -50 40 -7 22 -5 32 14 52 27 29 39
31 39 5z m598 -23 c5 -24 6 -47 3 -53 -3 -5 -7 4 -9 20 -2 17 -8 34 -13 40
-12 12 -12 35 0 35 6 0 14 -19 19 -42z m-419 -18 c0 -38 -3 -50 -14 -50 -11 0
-15 12 -15 50 0 36 4 50 14 50 9 0 14 -15 15 -50z m634 29 c8 -30 -2 -76 -19
-90 -19 -16 -30 -3 -14 16 7 8 10 32 8 55 -4 43 15 57 25 19z m-6781 -120 c33
-45 45 -70 18 -39 -35 41 -87 123 -94 150 -4 14 6 2 22 -26 15 -28 40 -66 54
-85z m5868 92 c0 -25 -5 -41 -15 -45 -12 -4 -15 4 -15 39 0 33 4 45 15 45 11
0 15 -11 15 -39z m-608 -17 c4 -51 -3 -62 -26 -38 -16 15 -22 65 -9 77 18 19
31 4 35 -39z m816 9 c3 -32 2 -33 -32 -33 -20 0 -36 2 -36 4 0 2 -3 11 -6 19
-7 20 24 49 50 45 16 -2 22 -11 24 -35z m190 0 c-3 -33 -7 -38 -31 -41 -31 -4
-43 14 -33 53 5 20 13 25 37 25 29 0 30 -2 27 -37z m106 18 c-3 -9 -9 -26 -11
-38 -4 -17 -11 -21 -27 -19 -11 3 -24 5 -27 5 -10 1 -18 41 -12 56 3 9 20 14
44 13 33 0 39 -3 33 -17z m116 -16 c0 -23 -6 -38 -15 -41 -24 -10 -65 5 -65
23 0 25 30 53 57 53 20 0 23 -5 23 -35z m-6581 21 c-2 -2 -58 -6 -124 -8 -66
-3 -106 -2 -90 2 30 8 222 13 214 6z m5491 -5 c0 -5 -12 -11 -27 -13 -42 -5
-42 -30 0 -26 36 3 53 -14 22 -20 -47 -10 -88 25 -64 54 13 16 69 19 69 5z
m405 -11 c4 -6 -9 -10 -32 -10 -28 0 -34 3 -23 10 20 13 47 13 55 0z m743 -7
c-5 -25 -28 -28 -28 -4 0 12 6 21 16 21 9 0 14 -7 12 -17z m-860 0 c-16 -2
-40 -2 -55 0 -16 2 -3 4 27 4 30 0 43 -2 28 -4z m-103 -29 c25 -17 25 -34 -1
-34 -8 0 -14 6 -14 14 0 10 -7 12 -22 8 -21 -5 -22 -4 -9 11 17 21 16 21 46 1z
m-5120 -54 c14 -31 16 -43 7 -52 -9 -9 -12 -5 -12 15 0 16 -7 42 -16 59 -9 16
-12 28 -7 25 5 -4 18 -24 28 -47z m4615 -100 c0 -68 -1 -70 -25 -70 -24 0 -25
2 -23 58 l2 57 3 -53 c5 -71 23 -56 23 19 0 33 4 59 10 59 6 0 10 -30 10 -70z
m312 28 c-13 -22 -17 -40 -12 -53 8 -22 4 -35 -11 -35 -17 0 -9 67 12 94 28
36 35 33 11 -6z m97 -5 c-23 -45 -24 -76 -4 -97 26 -25 16 -31 -10 -6 -31 29
-31 51 -3 101 28 50 42 51 17 2z m198 0 c16 -6 15 -8 -7 -13 -29 -7 -42 -50
-16 -50 9 0 16 -7 16 -16 0 -11 -8 -14 -27 -12 -30 3 -40 29 -29 74 7 25 28
30 63 17z m53 -48 c0 -25 -4 -45 -9 -45 -5 0 -11 20 -13 45 -2 31 1 45 9 45 9
0 13 -16 13 -45z m74 34 c17 15 68 1 62 -16 -3 -8 -6 -23 -6 -34 0 -14 -7 -19
-25 -19 -31 0 -33 25 -3 34 18 4 20 8 11 17 -20 20 -63 -5 -63 -36 0 -15 -6
-25 -15 -25 -11 0 -12 5 -5 26 6 14 8 30 4 35 -9 15 7 32 19 20 6 -6 15 -7 21
-2z m157 -11 c9 -19 9 -21 -2 -10 -7 6 -27 12 -43 12 -24 0 -27 3 -16 10 25
16 49 11 61 -12z m107 -20 c3 -30 0 -38 -13 -38 -13 0 -15 6 -10 30 5 24 3 30
-10 30 -13 0 -16 -7 -13 -30 3 -20 0 -30 -9 -30 -9 0 -13 14 -13 41 0 39 1 40
33 37 29 -3 32 -6 35 -40z m100 23 c3 -10 -2 -13 -22 -9 -15 3 -29 2 -31 -3
-6 -8 14 -24 30 -24 17 0 11 -30 -7 -33 -11 -2 -23 8 -32 27 -15 28 -15 31 7
46 25 18 48 16 55 -4z m176 3 c19 -19 20 -25 3 -48 -18 -25 -50 -16 -61 17 -8
22 -7 30 4 37 22 14 36 12 54 -6z m313 10 c-3 -3 -12 -4 -19 -1 -8 3 -5 6 6 6
11 1 17 -2 13 -5z m-392 -24 c8 -26 -11 -50 -40 -50 -25 0 -39 23 -30 51 9 27
61 26 70 -1z m191 9 c5 -9 -1 -10 -20 -5 -23 6 -27 4 -24 -11 2 -10 14 -23 26
-29 20 -10 21 -12 6 -18 -20 -8 -40 8 -60 46 l-15 28 40 0 c22 0 43 -5 47 -11z
m57 -10 c-4 -15 0 -27 12 -35 18 -13 17 -14 -7 -14 -17 0 -28 6 -30 18 -6 26
3 52 17 52 9 0 11 -8 8 -21z m72 -14 c0 -16 -6 -30 -13 -33 -9 -3 -12 6 -10
32 3 42 23 43 23 1z m120 9 c16 -24 16 -27 -1 -45 -9 -10 -23 -19 -31 -19 -11
0 -11 6 2 31 13 24 14 34 4 45 -7 8 -7 14 -1 14 5 0 17 -12 27 -26z m-1168
-26 c-3 -7 -5 -2 -5 12 0 14 2 19 5 13 2 -7 2 -19 0 -25z m397 9 c14 -8 23
-17 19 -20 -7 -8 -53 -10 -53 -3 0 2 -3 11 -6 20 -8 20 5 20 40 3z m-354 -33
c0 -8 -4 -12 -10 -9 -5 3 -10 13 -10 21 0 8 5 12 10 9 6 -3 10 -13 10 -21z
m-5597 -19 c-3 -9 -8 -14 -10 -11 -3 3 -2 9 2 15 9 16 15 13 8 -4z m-25 -50
c-6 -14 -13 -23 -15 -21 -5 5 15 46 22 46 3 0 -1 -11 -7 -25z m412 -15 c12
-23 12 -24 -3 -11 -10 7 -17 20 -17 29 0 18 3 16 20 -18z m7308 -15 c7 -14 12
-35 12 -46 0 -23 -28 -69 -42 -69 -6 0 -3 12 7 26 16 25 17 59 0 97 -12 27 11
20 23 -8z m-2610 -47 c-3 -59 -5 -63 -28 -66 -24 -3 -25 -1 -22 48 5 61 19 66
25 8 3 -30 4 -26 3 15 -1 41 3 57 12 57 10 0 12 -16 10 -62z m164 2 c-2 -33
-8 -60 -13 -60 -10 0 -13 103 -2 113 15 15 18 4 15 -53z m1196 41 c3 -9 -2
-11 -17 -6 -12 4 -21 2 -21 -4 0 -6 -4 -11 -10 -11 -5 0 -10 6 -10 14 0 26 49
33 58 7z m1368 -13 c15 -29 15 -34 0 -65 -9 -18 -21 -33 -27 -33 -8 0 -6 7 4
18 21 23 21 45 2 82 -9 17 -11 30 -6 30 6 0 18 -14 27 -32z m-694 -30 c5 -62
5 -60 -16 -52 -22 8 -30 43 -17 77 16 42 29 32 33 -25z m-7934 17 c-6 -14 -13
-23 -15 -21 -5 5 15 46 22 46 3 0 -1 -11 -7 -25z m822 -90 c19 -28 27 -45 19
-38 -33 27 -89 120 -83 138 6 13 9 10 19 -17 6 -19 26 -56 45 -83z m6620 95
c0 -11 6 -20 14 -20 8 0 16 -7 20 -15 3 -8 1 -15 -4 -15 -6 0 -10 5 -10 10 0
6 -7 10 -15 10 -8 0 -15 -7 -15 -15 0 -8 -5 -15 -11 -15 -6 0 -8 7 -5 16 3 9
6 27 6 40 0 13 5 24 10 24 6 0 10 -9 10 -20z m87 8 c16 -20 25 -68 13 -68 -5
0 -13 12 -16 28 -4 15 -11 33 -17 40 -6 8 -6 12 1 12 5 0 14 -6 19 -12z
m-1107 -44 c0 -19 -4 -34 -10 -34 -5 0 -10 11 -10 25 0 16 -6 25 -16 25 -8 0
-13 -3 -11 -7 3 -5 -1 -14 -9 -21 -12 -11 -14 -8 -14 17 0 25 4 30 28 33 38 5
42 1 42 -38z m267 5 c-5 -42 -13 -57 -23 -46 -3 3 -8 24 -11 46 -5 38 -4 41
17 41 21 0 22 -3 17 -41z m955 24 c10 -9 18 -27 18 -40 0 -19 -5 -23 -29 -23
-39 0 -57 23 -43 55 13 29 28 31 54 8z m86 -27 c3 -34 1 -37 -20 -34 -17 2
-24 11 -26 32 -4 28 13 49 33 43 6 -2 11 -20 13 -41z m487 29 c6 0 11 -13 13
-29 2 -18 0 -26 -7 -21 -6 3 -11 13 -11 21 0 8 -7 14 -15 14 -17 0 -20 -16 -4
-26 7 -4 7 -10 1 -16 -16 -16 -32 0 -32 32 0 28 16 43 35 31 6 -3 15 -6 20 -6z
m87 3 c-7 -7 -12 -23 -13 -37 l-1 -26 -8 25 c-13 41 -11 50 12 50 17 0 19 -3
10 -12z m-8034 -42 c-4 -25 -33 -33 -42 -11 -3 9 -1 25 5 36 8 17 13 18 25 8
8 -7 14 -22 12 -33z m6042 34 c0 -5 -7 -10 -15 -10 -8 0 -15 -5 -15 -10 0 -6
7 -13 15 -16 22 -9 18 -24 -5 -24 -16 0 -20 7 -20 35 0 28 4 35 20 35 11 0 20
-4 20 -10z m214 -22 c-1 -30 -4 -33 -37 -36 -36 -3 -37 -2 -37 32 0 35 1 36
38 36 35 0 37 -1 36 -32z m266 11 c0 -18 -3 -19 -15 -9 -8 6 -19 9 -25 5 -18
-11 -11 -25 15 -25 16 0 25 -6 25 -15 0 -10 -10 -15 -30 -15 -28 0 -30 2 -30
40 0 38 2 40 30 40 24 0 30 -4 30 -21z m96 13 c6 -4 14 -20 18 -37 5 -22 4
-26 -4 -15 -6 10 -10 11 -10 3 0 -8 -14 -13 -35 -13 -33 0 -35 2 -35 35 0 32
3 35 28 35 15 0 32 -4 38 -8z m486 2 c11 -10 -5 -45 -26 -56 -19 -10 -20 -10
-7 5 7 9 11 26 8 37 -5 19 12 28 25 14z m462 0 c26 -10 20 -53 -9 -60 -36 -9
-55 2 -55 30 0 18 6 26 23 29 12 2 23 5 24 6 1 0 8 -2 17 -5z m194 -25 c3 -28
-16 -43 -43 -33 -15 6 -21 45 -8 58 16 16 48 1 51 -25z m95 10 c6 -10 7 -24 2
-35 -8 -17 -9 -16 -13 9 -2 16 -10 27 -19 27 -11 0 -14 -6 -9 -26 5 -19 3 -25
-6 -22 -7 3 -14 19 -16 37 -3 30 -1 32 24 29 15 -2 32 -10 37 -19z m-871 -14
c-2 -14 -8 -28 -13 -31 -10 -6 -12 39 -2 49 13 14 20 6 15 -18z m65 -5 c-11
-29 -27 -41 -27 -19 0 16 20 49 29 49 5 0 4 -13 -2 -30z m1019 15 c8 -21 -6
-41 -17 -24 -12 19 -11 39 1 39 6 0 13 -7 16 -15z m-7591 -5 c-4 -6 -59 -9
-138 -8 l-132 2 130 6 c72 3 134 7 138 8 5 1 5 -2 2 -8z m7678 -5 c4 -8 2 -17
-3 -20 -6 -4 -10 -1 -10 4 0 6 -7 11 -15 11 -8 0 -15 5 -15 10 0 16 37 12 43
-5z m-8442 -32 c6 -16 31 -63 55 -105 l46 -78 125 7 c95 5 124 3 119 -5 -5 -8
-47 -12 -130 -12 l-122 0 -34 -60 c-18 -33 -35 -58 -37 -56 -2 2 10 27 27 55
16 29 30 57 30 63 0 6 -22 53 -50 105 -27 51 -50 98 -50 103 0 19 11 10 21
-17z m8410 3 c5 3 9 -2 9 -10 0 -8 -4 -17 -9 -20 -9 -6 -22 17 -20 37 0 8 2 8
6 -1 2 -6 9 -10 14 -6z m-7116 -163 c-9 -15 -13 -19 -9 -8 4 11 10 38 13 60 5
39 6 39 9 8 2 -18 -4 -45 -13 -60z m6760 37 c7 -23 -13 -102 -29 -112 -24 -16
-26 -7 -5 23 21 30 22 64 3 114 -7 18 -6 18 9 7 9 -8 19 -22 22 -32z m100 -12
c18 -46 13 -73 -18 -89 -21 -12 -21 -11 -4 8 22 26 22 50 -3 91 -24 39 -24 43
-6 36 8 -3 22 -24 31 -46z m-1435 12 l-22 -30 22 -36 c11 -20 18 -39 15 -43
-11 -10 -55 48 -55 72 0 29 27 67 46 67 12 0 11 -6 -6 -30z m-5132 13 c-10 -2
-28 -2 -40 0 -13 2 -5 4 17 4 22 1 32 -1 23 -4z m-1192 -41 c-14 -27 -12 -32
40 -125 l54 -96 -60 -121 -59 -121 35 -60 c36 -60 68 -129 60 -129 -2 0 -16
23 -31 52 -15 29 -37 68 -49 86 l-21 34 -130 -1 c-88 -2 -132 -6 -137 -14 -5
-8 -8 -6 -8 6 0 10 -7 30 -16 45 l-16 27 22 -27 c21 -27 25 -28 120 -28 160 0
153 -4 216 121 30 60 54 116 54 124 0 20 -51 121 -84 164 l-25 33 21 29 c27
37 33 37 14 1z m5682 -22 c-3 -55 -21 -72 -26 -26 -4 36 5 76 19 76 6 0 9 -20
7 -50z m152 36 c-6 -8 -10 -27 -8 -42 2 -16 -2 -29 -9 -31 -9 -3 -13 9 -13 41
0 40 3 46 21 46 18 0 19 -3 9 -14z m864 6 c3 -5 2 -19 -1 -32 -6 -22 -7 -23
-14 -4 -4 10 -8 25 -8 32 -1 14 15 16 23 4z m181 -2 c3 -5 -1 -10 -9 -10 -25
0 -21 -51 4 -57 11 -3 20 -9 20 -14 0 -13 -34 -11 -48 3 -13 13 -17 70 -5 81
10 10 31 8 38 -3z m113 -15 c3 -19 2 -19 -11 -2 -20 24 -39 21 -35 -5 2 -15 9
-22 21 -22 9 1 17 -4 17 -12 0 -15 -18 -18 -44 -8 -16 6 -22 54 -9 68 15 14
58 1 61 -19z m277 3 c41 -27 47 -43 8 -22 -27 13 -28 13 -33 -13 -3 -16 -13
-29 -23 -31 -16 -3 -17 -1 -8 17 7 11 9 32 5 46 -8 31 5 32 51 3z m205 -4 c7
-19 7 -31 -1 -40 -16 -19 -65 -18 -73 2 -10 25 -7 34 9 34 8 0 14 -3 14 -7 -4
-22 3 -33 19 -33 12 0 17 8 17 25 0 14 -5 25 -12 25 -6 0 -15 5 -18 10 -3 6 3
10 15 10 13 0 24 -10 30 -26z m100 11 c0 -9 -7 -29 -15 -45 -18 -36 -41 -41
-30 -7 3 12 7 28 7 35 1 6 6 12 12 13 6 1 0 5 -14 9 -24 8 -23 8 8 9 23 1 32
-3 32 -14z m-1635 -4 c3 -5 -2 -11 -12 -13 -15 -3 -15 -4 1 -21 21 -21 20 -23
-14 -32 -25 -6 -25 -5 -22 34 3 32 8 41 22 41 11 0 21 -4 25 -9z m103 -8 c5
-18 -10 -16 -34 2 -18 15 -18 15 5 13 14 -2 26 -9 29 -15z m116 -16 c7 -29 -3
-38 -54 -40 -49 -3 -62 13 -35 44 11 12 25 17 37 13 10 -3 18 -1 18 5 0 18 28
0 34 -22z m80 -5 c1 -29 -2 -32 -26 -32 -18 0 -28 5 -28 15 0 8 6 12 14 9 7
-3 16 2 19 10 5 11 0 16 -13 16 -11 0 -20 5 -20 11 0 6 12 9 27 7 22 -3 26 -8
27 -36z m308 3 c-6 -34 -12 -32 -12 6 0 16 4 28 9 25 4 -3 6 -17 3 -31z m51
22 c3 -8 2 -19 -3 -26 -5 -9 -9 -4 -12 13 -5 27 6 36 15 13z m65 -19 c10 -37
4 -59 -10 -34 -5 9 -7 20 -3 25 3 5 1 12 -5 16 -13 8 -13 25 0 25 5 0 13 -15
18 -32z m127 -8 c0 -31 -3 -35 -27 -38 -30 -4 -34 8 -22 56 5 16 13 22 28 20
17 -2 21 -10 21 -38z m293 0 c1 -32 -3 -40 -17 -40 -25 0 -41 20 -41 52 0 24
4 28 29 28 27 0 29 -3 29 -40z m97 27 c17 -13 17 -15 -5 -30 -27 -19 -50 -7
-50 24 0 22 28 25 55 6z m-677 -9 c30 -30 -11 -85 -44 -57 -14 12 -19 51 -7
62 10 11 38 8 51 -5z m-503 -8 c3 -5 -1 -10 -10 -10 -9 0 -13 5 -10 10 3 6 8
10 10 10 2 0 7 -4 10 -10z m1365 -15 c0 -8 -2 -15 -4 -15 -2 0 -11 -3 -19 -6
-9 -3 -16 3 -20 15 -4 17 0 21 19 21 15 0 24 -6 24 -15z m-1330 -15 c0 -13 -7
-20 -20 -20 -11 0 -20 5 -20 10 0 6 7 10 15 10 8 0 15 5 15 10 0 6 2 10 5 10
3 0 5 -9 5 -20z m745 -159 c0 -14 -6 -26 -13 -29 -8 -2 -10 2 -5 14 5 13 3 16
-9 11 -19 -7 -33 19 -15 27 25 10 42 0 42 -23z m-6387 -24 c-1 -1 -37 1 -78 4
-70 5 -71 6 -20 7 30 1 62 7 70 12 10 6 17 4 23 -6 5 -9 7 -16 5 -17z m416 17
c3 -8 2 -12 -4 -9 -6 3 -10 10 -10 16 0 14 7 11 14 -7z m-1225 -38 c-9 -19 -7
-30 6 -52 l18 -29 -24 27 c-23 26 -29 28 -124 31 l-100 3 102 2 c91 2 103 4
113 22 15 28 22 25 9 -4z m1322 -107 c10 -21 19 -44 19 -51 0 -7 -10 7 -21 32
-11 24 -28 54 -37 65 -16 19 -16 19 1 5 10 -7 27 -31 38 -51z m-1258 -28 c27
-46 14 -38 -18 12 -16 23 -22 37 -14 30 8 -6 22 -25 32 -42z m1056 2 c-10 -21
-19 -43 -19 -50 0 -6 -4 -14 -10 -18 -5 -3 -3 15 4 40 15 49 8 58 -19 23 -17
-23 -17 -23 -2 2 8 13 25 28 38 31 13 4 25 7 25 8 1 1 -7 -16 -17 -36z m22
-56 c-43 -42 -54 -49 -32 -22 18 22 42 55 53 73 15 24 24 30 32 22 7 -7 -8
-28 -53 -73z m6472 66 c-7 -2 -19 -2 -25 0 -7 3 -2 5 12 5 14 0 19 -2 13 -5z
m-7623 -19 c0 -8 -5 -12 -11 -9 -6 4 -23 11 -37 15 -25 8 -24 8 11 9 27 1 37
-3 37 -15z m-90 -9 c-7 -9 -15 -13 -19 -10 -3 3 1 10 9 15 21 14 24 12 10 -5z
m58 -38 c5 -23 -15 -47 -39 -47 -14 0 -19 7 -19 29 0 16 6 32 13 34 22 10 42
2 45 -16z m1307 -123 c-25 -49 -43 -78 -39 -64 8 32 75 162 81 156 2 -2 -16
-44 -42 -92z m-1164 23 c-10 -9 -11 -8 -5 6 3 10 9 15 12 12 3 -3 0 -11 -7
-18z m7679 -7 c6 -11 8 -20 6 -20 -3 0 -10 9 -16 20 -6 11 -8 20 -6 20 3 0 10
-9 16 -20z m173 -60 c99 0 137 3 140 13 3 6 6 -1 6 -16 1 -16 6 -37 11 -48 6
-10 8 -19 6 -19 -3 0 -12 14 -21 30 l-16 30 -134 0 c-74 0 -135 -4 -135 -8 0
-5 -7 -17 -16 -28 -14 -18 -15 -18 -4 4 7 13 9 36 6 50 -6 24 -5 25 7 10 12
-16 33 -18 150 -18z m-7303 -50 c0 -5 -2 -10 -4 -10 -3 0 -8 5 -11 10 -3 6 -1
10 4 10 6 0 11 -4 11 -10z m610 -66 c23 -36 40 -67 37 -70 -4 -5 -87 117 -87
129 0 15 9 4 50 -59z m-683 40 c-3 -3 -12 -4 -19 -1 -8 3 -5 6 6 6 11 1 17 -2
13 -5z m7193 -14 c-6 -11 -13 -20 -16 -20 -2 0 0 9 6 20 6 11 13 20 16 20 2 0
0 -9 -6 -20z m370 -10 c6 -11 8 -20 6 -20 -3 0 -10 9 -16 20 -6 11 -8 20 -6
20 3 0 10 -9 16 -20z m74 -128 l18 -39 -32 -51 c-42 -69 -48 -67 -10 2 l31 55
-21 41 c-12 23 -17 40 -12 37 4 -4 16 -24 26 -45z m-492 21 c24 -22 23 -74 -3
-107 -23 -30 -47 -33 -89 -11 -25 13 -30 22 -30 53 0 54 23 82 67 82 20 0 45
-7 55 -17z m-6837 -3 c3 -5 -1 -10 -9 -10 -9 0 -16 5 -16 10 0 6 4 10 9 10 6
0 13 -4 16 -10z m7686 -142 c6 -10 7 -18 5 -18 -9 0 -66 104 -66 119 0 8 12
-8 26 -35 14 -27 30 -57 35 -66z m-118 95 c-24 -2 -62 -2 -85 0 -24 2 -5 4 42
4 47 0 66 -2 43 -4z m-309 -148 c-9 -14 -18 -25 -21 -25 -5 0 5 18 20 38 17
22 18 13 1 -13z m-192 -85 c126 0 126 0 148 28 15 19 18 21 11 5 -18 -36 -13
-53 33 -127 24 -39 54 -92 67 -118 25 -51 22 -63 -22 -118 -14 -17 -11 -8 7
24 l27 48 -25 52 c-14 29 -47 84 -72 124 l-47 72 -129 0 c-128 0 -128 0 -150
-27 l-21 -28 16 33 c15 31 15 34 -6 65 l-21 32 29 -33 28 -32 127 0z m695 -12
c-3 -8 -6 -5 -6 6 -1 11 2 17 5 13 3 -3 4 -12 1 -19z m-121 -228 c0 -12 -4
-16 -9 -11 -5 5 -6 14 -3 20 10 15 12 14 12 -9z m-841 -30 c0 -27 -2 -28 -12
-14 -9 13 -10 21 -2 31 15 17 14 18 14 -17z m-6920 -80 c3 -5 1 -10 -4 -10 -6
0 -11 5 -11 10 0 6 2 10 4 10 3 0 8 -4 11 -10z m6975 -40 c6 -11 8 -20 6 -20
-3 0 -10 9 -16 20 -6 11 -8 20 -6 20 3 0 10 -9 16 -20z m406 -14 c-15 -23 -14
-26 14 -56 43 -46 41 -90 -3 -124 -43 -33 -60 -33 -86 1 -47 59 -40 113 19
143 22 11 44 29 50 40 6 11 13 20 17 20 3 0 -2 -11 -11 -24z m-336 -107 c0 -4
-6 -11 -12 -15 -7 -4 -10 -4 -6 0 4 5 2 20 -3 35 -9 24 -8 25 6 7 8 -11 15
-23 15 -27z m183 -6 c-7 -2 -21 -2 -30 0 -10 3 -4 5 12 5 17 0 24 -2 18 -5z
m-7050 -140 c-7 -2 -21 -2 -30 0 -10 3 -4 5 12 5 17 0 24 -2 18 -5z m7489 -10
c-40 -2 -103 -2 -140 0 -37 2 -4 3 73 3 77 0 107 -2 67 -3z m118 -36 c0 -16
-18 3 -23 25 -6 22 -5 22 8 4 8 -11 15 -24 15 -29z m-392 -299 c60 -89 93
-156 81 -164 -7 -4 -9 -3 -6 3 4 6 -27 63 -68 128 -41 64 -72 122 -69 127 4 6
13 -4 20 -21 7 -17 26 -50 42 -73z m472 32 c-6 -11 -13 -20 -16 -20 -2 0 0 9
6 20 6 11 13 20 16 20 2 0 0 -9 -6 -20z m-878 -49 c-9 -16 -18 -28 -21 -26 -4
5 27 55 34 55 2 0 -4 -13 -13 -29z m-7012 -21 c10 -18 8 -20 -24 -20 -40 0
-54 14 -29 29 27 16 41 13 53 -9z m6980 0 c0 -5 -2 -10 -4 -10 -3 0 -8 5 -11
10 -3 6 -1 10 4 10 6 0 11 -4 11 -10z m-132 -52 c-2 -25 -8 -34 -25 -36 -19
-3 -23 1 -23 26 0 34 6 42 32 42 16 0 19 -6 16 -32z m963 -5 c-5 -10 -17 -27
-26 -38 -16 -19 -17 -19 -3 5 26 46 29 50 34 50 3 0 0 -8 -5 -17z m-8192 -28
c39 -20 46 -43 23 -75 -21 -28 -65 -38 -88 -19 -19 16 -18 68 3 91 20 22 26
22 62 3z m-159 -15 c31 -58 -16 -107 -76 -79 -34 17 -44 58 -19 83 24 24 82
21 95 -4z m374 4 c26 -26 20 -61 -14 -79 -37 -19 -42 -19 -68 5 -27 26 -27 31
-1 64 23 29 60 34 83 10z m7053 0 c-3 -3 -12 -4 -19 -1 -8 3 -5 6 6 6 11 1 17
-2 13 -5z m-7633 -20 c20 -20 20 -30 0 -38 -49 -19 -91 7 -64 39 16 19 44 19
64 -1z m8454 -1 c-32 -2 -86 -2 -120 0 -35 2 -9 3 57 3 66 0 94 -1 63 -3z
m-7734 -29 c22 -9 20 -24 -3 -24 -21 0 -34 13 -24 24 8 7 8 7 27 0z m64 -6
c-3 -7 -13 -15 -24 -17 -16 -3 -17 -1 -5 13 16 19 34 21 29 4z m-974 -99 c30
-23 33 -49 10 -84 -21 -33 -57 -32 -83 1 -27 34 -26 50 4 79 29 30 35 31 69 4z
m212 -20 c17 -34 8 -60 -31 -85 -23 -15 -27 -15 -49 0 -14 8 -27 25 -31 36
-12 39 46 97 83 82 7 -2 19 -17 28 -33z m181 7 c27 -24 27 -26 13 -53 -9 -15
-27 -34 -42 -42 -24 -14 -28 -14 -47 3 -29 26 -28 80 1 100 30 22 42 20 75 -8z
m191 -4 c19 -25 -13 -102 -42 -102 -17 0 -66 56 -66 75 0 7 12 23 27 34 28 23
59 20 81 -7z m180 12 c28 -19 29 -57 2 -84 -26 -26 -55 -25 -74 2 -21 29 -20
57 1 80 20 22 42 23 71 2z m187 -4 c24 -27 13 -66 -26 -85 -24 -13 -34 -14
-45 -4 -31 25 -4 109 35 109 10 0 26 -9 36 -20z m135 -40 c-33 -26 -40 -25
-40 4 0 18 6 26 23 28 36 6 45 -11 17 -32z m7216 -64 c-1 -20 -5 -31 -10 -26
-7 7 -1 60 7 60 2 0 3 -15 3 -34z m-299 -8 c-3 -8 -6 -5 -6 6 -1 11 2 17 5 13
3 -3 4 -12 1 -19z m-8000 -80 c29 -27 29 -62 1 -82 -30 -21 -61 -20 -82 3 -20
21 -15 53 12 84 20 23 41 22 69 -5z m200 0 c13 -12 23 -28 23 -37 0 -19 -49
-71 -67 -71 -19 0 -63 46 -63 65 0 21 45 65 66 65 10 0 28 -10 41 -22z m197
-31 c8 -21 6 -31 -9 -47 -25 -28 -63 -22 -89 13 l-21 29 33 29 c31 28 36 29
55 16 12 -8 26 -26 31 -40z m7962 -9 c21 -35 44 -73 52 -85 8 -13 12 -23 9
-23 -5 0 -37 50 -86 133 -13 20 -20 37 -18 37 3 0 22 -28 43 -62z m-7783 37
c23 -12 51 -12 170 -4 78 5 188 7 244 3 88 -6 105 -10 123 -29 l21 -22 -48
-12 c-50 -13 -334 -16 -433 -5 -40 4 -66 2 -94 -10 -38 -16 -40 -16 -63 6 -28
26 -29 42 -3 68 24 24 45 25 83 5z m7212 -165 c3 -5 1 -10 -4 -10 -6 0 -11 5
-11 10 0 6 2 10 4 10 3 0 8 -4 11 -10z m-6831 -235 c27 -42 16 -78 -31 -103
-28 -16 -66 1 -82 35 -15 32 -14 36 10 67 28 35 80 36 103 1z m-620 -275 c26
-17 77 -46 114 -64 85 -43 103 -64 137 -159 23 -63 27 -88 22 -133 -10 -96
-40 -141 -142 -211 -49 -34 -109 -71 -131 -82 l-41 -21 -128 79 c-70 44 -136
88 -146 97 -17 15 -19 32 -19 138 1 142 10 194 42 220 36 28 232 165 239 166
3 0 27 -14 53 -30z m8018 -282 c40 -61 61 -98 54 -98 -2 0 -22 28 -43 63 -53
83 -55 87 -50 87 2 0 20 -24 39 -52z m78 -128 c6 -11 8 -20 6 -20 -3 0 -10 9
-16 20 -6 11 -8 20 -6 20 3 0 10 -9 16 -20z m-7428 -207 c25 -23 23 -68 -4
-87 -29 -20 -34 -20 -58 4 -28 28 -27 78 3 90 32 13 38 12 59 -7z m-306 -396
c22 -19 27 -32 26 -63 -3 -75 -88 -113 -131 -58 -65 83 27 188 105 121z m531
-233 c8 -22 -9 -48 -35 -52 -29 -4 -54 44 -31 59 23 14 59 10 66 -7z m-1405
-256 c-3 -32 -9 -48 -18 -48 -18 0 -20 96 -1 103 20 7 24 -5 19 -55z m132 16
c10 -27 7 -44 -9 -44 -8 0 -15 5 -15 10 0 6 -8 11 -17 11 -17 1 -17 2 0 6 9 2
17 11 17 19 0 19 16 18 24 -2z m7891 -51 c-7 -25 -16 -48 -19 -51 -13 -12 -13
5 -1 40 8 24 9 40 2 47 -15 15 2 35 18 21 11 -10 11 -19 0 -57z m115 52 c13
-16 6 -85 -10 -85 -4 0 -5 12 -1 28 5 18 3 35 -7 50 -16 24 -2 31 18 7z
m-1150 -45 c0 -29 -4 -40 -15 -40 -16 0 -20 35 -9 64 11 29 24 16 24 -24z
m116 24 c-3 -9 -6 -27 -6 -40 0 -13 -6 -24 -13 -24 -9 0 -13 14 -12 40 0 32 4
40 19 40 12 0 16 -5 12 -16z m99 -29 c0 -45 -8 -53 -35 -35 -13 8 -13 11 -1
19 8 5 12 19 9 35 -4 19 -1 26 11 26 12 0 16 -10 16 -45z m410 29 c14 -14 14
-18 1 -33 -8 -9 -14 -20 -13 -26 3 -17 -46 -18 -59 -1 -34 47 30 101 71 60z
m197 -1 c10 -9 18 -27 18 -40 0 -20 -5 -23 -40 -23 -28 0 -40 4 -40 14 0 27
12 46 29 46 14 0 14 2 1 10 -12 8 -13 10 -1 10 8 0 23 -7 33 -17z m101 3 c4
-9 0 -12 -13 -9 -10 3 -21 0 -24 -6 -5 -7 4 -11 23 -11 24 0 31 -4 31 -20 0
-17 -7 -20 -40 -20 -34 0 -40 3 -40 21 0 47 49 82 63 45z m-601 -31 c3 -31 1
-36 -19 -41 -29 -8 -53 11 -53 41 0 28 8 35 41 35 23 0 27 -5 31 -35z m83 25
c19 -8 19 -9 1 -9 -14 -1 -17 -7 -14 -25 3 -15 0 -27 -8 -30 -10 -4 -14 5 -14
34 0 42 2 44 35 30z m113 -8 c3 -11 0 -12 -16 -3 -15 8 -23 7 -32 -4 -11 -13
-8 -15 19 -15 17 0 31 -4 31 -10 0 -5 -16 -10 -35 -10 -36 0 -42 10 -29 45 8
19 55 17 62 -3z m153 -22 c-6 -26 -10 -31 -15 -18 -4 9 -2 26 4 38 16 30 20
22 11 -20z m54 30 c18 -8 17 -9 -7 -9 -16 -1 -28 4 -28 9 0 12 8 12 35 0z m-5
-45 c0 -8 -4 -15 -10 -15 -5 0 -7 7 -4 15 4 8 8 15 10 15 2 0 4 -7 4 -15z
m-7701 -92 c-20 -39 -18 -80 4 -96 7 -5 2 -7 -13 -5 -35 4 -39 55 -10 103 29
47 43 45 19 -2z m928 -9 c-4 -4 -14 1 -22 12 -22 29 -18 41 7 17 12 -13 19
-26 15 -29z m543 37 c0 -5 -9 -11 -20 -14 -19 -5 -29 -37 -12 -37 5 0 9 -13 9
-30 0 -37 -8 -38 -24 -3 -14 29 -17 76 -6 86 10 10 53 8 53 -2z m490 -36 c0
-14 -4 -25 -10 -25 -17 0 -11 -18 12 -40 l22 -20 -21 0 c-41 0 -53 11 -53 47
0 22 4 32 11 27 8 -4 9 0 4 15 -5 17 -2 21 14 21 16 0 21 -6 21 -25z m-1809 5
c26 -15 28 -90 1 -90 -13 0 -17 8 -17 32 0 17 -6 33 -14 36 -10 3 -12 -4 -9
-32 4 -37 -5 -49 -16 -20 -23 59 7 99 55 74z m989 -16 c6 -14 8 -30 5 -34 -3
-5 3 -13 12 -19 15 -9 12 -10 -17 -11 -35 0 -35 0 -35 45 -1 51 19 62 35 19z
m618 -26 c3 -47 3 -48 -27 -48 -34 0 -37 9 -25 69 5 25 11 31 28 29 17 -2 22
-11 24 -50z m299 36 c2 -7 -8 -11 -25 -10 -20 1 -28 5 -24 14 5 15 44 12 49
-4z m-1777 -39 c0 -38 -3 -45 -20 -45 -23 0 -26 10 -8 28 9 9 6 12 -15 12 -15
0 -28 -6 -28 -12 -1 -7 -5 1 -8 17 -10 41 -6 45 40 45 l39 0 0 -45z m50 20 c0
-14 -4 -25 -9 -25 -4 0 -6 11 -3 25 2 14 6 25 8 25 2 0 4 -11 4 -25z m230 15
c0 -5 -7 -10 -15 -10 -10 0 -15 -10 -15 -30 0 -17 5 -30 12 -30 9 0 9 -3 1
-11 -6 -6 -16 -8 -22 -5 -15 10 -14 69 1 84 15 15 38 16 38 2z m105 -20 c0
-20 -4 -24 -22 -22 -13 2 -23 -2 -23 -7 0 -6 11 -11 25 -11 16 0 25 -6 25 -15
0 -15 -26 -20 -54 -9 -19 7 -22 64 -4 82 21 21 53 10 53 -18z m105 16 c0 -8
-11 -17 -25 -20 -14 -4 -25 -13 -25 -21 0 -19 16 -19 24 0 9 24 26 17 26 -9 0
-29 -10 -38 -30 -26 -9 5 -20 4 -29 -3 -12 -10 -13 -6 -7 32 4 24 9 48 12 53
9 14 54 9 54 -6z m128 7 c-19 -44 -56 -93 -70 -93 -10 0 -18 2 -18 5 0 14 67
94 78 95 8 0 12 -3 10 -7z m352 -9 c0 -11 -5 -14 -16 -10 -9 4 -23 1 -30 -5
-11 -9 -14 -8 -14 3 0 21 10 28 37 28 14 0 23 -6 23 -16z m101 -9 c1 -14 2
-33 3 -42 1 -14 -8 -19 -35 -21 l-36 -3 10 45 c9 39 14 46 34 46 18 0 23 -6
24 -25z m306 -10 c-5 -44 -10 -49 -42 -41 -19 5 -25 13 -25 35 0 35 6 41 42
41 27 0 28 -2 25 -35z m203 14 c0 -15 -5 -19 -15 -15 -9 3 -15 0 -15 -8 0 -8
7 -17 16 -20 20 -8 9 -26 -17 -26 -15 0 -19 7 -19 38 0 43 5 52 32 52 12 0 18
-7 18 -21z m303 -7 c-4 -30 -32 -72 -49 -72 -11 0 -9 8 7 29 14 18 20 38 16
51 -4 16 -1 20 11 18 11 -3 16 -12 15 -26z m-1783 8 c0 -5 -2 -10 -4 -10 -3 0
-8 5 -11 10 -3 6 -1 10 4 10 6 0 11 -4 11 -10z m1175 -25 c0 -23 -5 -31 -22
-33 -14 -2 -23 2 -23 10 0 7 -3 23 -7 36 -5 21 -3 23 23 20 25 -3 29 -7 29
-33z m-515 16 c0 -5 -8 -12 -17 -16 -17 -6 -17 -7 -1 -19 21 -16 14 -26 -13
-19 -22 6 -24 16 -7 43 13 20 38 28 38 11z m5938 -33 c-3 -47 -21 -55 -26 -12
-4 31 4 54 18 54 7 0 10 -17 8 -42z m910 24 c2 -7 -2 -10 -12 -6 -9 3 -16 1
-16 -5 0 -6 7 -11 15 -11 8 0 15 -9 15 -20 0 -15 -7 -20 -25 -20 -14 0 -25 4
-25 9 0 5 -3 23 -6 41 -7 30 -5 31 21 28 16 -2 30 -9 33 -16z m107 9 c3 -5 -6
-11 -20 -13 -24 -3 -24 -4 -10 -32 19 -37 19 -38 -7 -34 -16 2 -24 11 -26 28
-2 14 -8 30 -13 36 -5 6 -6 14 -2 17 10 10 71 8 78 -2z m110 -35 c0 -38 0 -38
-42 -40 -43 -2 -57 9 -48 39 3 8 7 22 10 31 3 11 15 14 42 12 36 -3 37 -4 38
-42z m69 38 c17 -7 23 -74 7 -74 -5 0 -16 -3 -25 -6 -12 -5 -16 0 -16 20 0 14
6 26 13 26 9 0 8 3 -2 9 -7 5 -10 14 -7 20 8 13 9 13 30 5z m-6116 -26 c3 -14
-24 -46 -32 -37 -2 2 -6 16 -10 31 -6 25 -4 28 16 24 13 -1 24 -10 26 -18z
m5206 16 c18 -7 22 -49 6 -59 -6 -4 -10 5 -10 19 0 17 -5 26 -16 26 -12 0 -15
-6 -11 -23 4 -12 2 -29 -3 -37 -7 -11 -10 -4 -10 26 0 53 8 62 44 48z m146
-35 c0 -24 -5 -39 -16 -43 -25 -10 -59 -7 -72 6 -9 9 -12 9 -12 -1 0 -7 -5 -9
-11 -6 -6 4 -9 21 -7 38 3 35 19 44 81 43 36 0 37 -1 37 -37z m89 32 c18 -12
5 -31 -22 -31 -18 0 -19 2 -7 10 12 8 10 10 -8 10 -31 0 -26 -34 6 -38 32 -5
27 -19 -8 -24 -38 -6 -40 -3 -40 44 0 36 1 38 33 38 17 0 38 -4 46 -9z m81 -1
c0 -5 -4 -10 -10 -10 -5 0 -10 -7 -10 -15 0 -8 7 -15 16 -15 9 0 14 -6 12 -12
-10 -29 -33 -12 -36 25 -2 28 0 37 12 37 9 0 16 -4 16 -10z m100 -26 c0 -20
-4 -33 -10 -29 -5 3 -6 13 -3 22 4 11 3 14 -5 9 -13 -8 -17 16 -5 27 15 15 23
5 23 -29z m85 26 c3 -5 1 -10 -4 -10 -6 0 -11 5 -11 10 0 6 2 10 4 10 3 0 8
-4 11 -10z m-7375 -25 c0 -16 -5 -23 -13 -19 -7 2 -13 13 -13 24 0 11 6 20 13
20 7 0 13 -11 13 -25z m850 5 c0 -11 -4 -20 -9 -20 -5 0 -11 9 -14 20 -3 13 0
20 9 20 8 0 14 -9 14 -20z m5956 4 c-3 -9 -6 -27 -6 -40 0 -13 -4 -24 -10 -24
-11 0 -13 39 -4 64 3 9 11 16 16 16 6 0 7 -7 4 -16z m-86 -24 c0 -19 -5 -30
-14 -30 -9 0 -12 7 -9 20 3 11 0 20 -6 20 -6 0 -11 -7 -11 -15 0 -8 -7 -15
-16 -15 -11 0 -14 5 -10 16 3 9 6 20 6 25 0 5 14 9 30 9 27 0 30 -3 30 -30z
m-6780 10 c0 -5 -4 -10 -10 -10 -5 0 -10 5 -10 10 0 6 5 10 10 10 6 0 10 -4
10 -10z m7444 -102 c17 -64 -3 -138 -37 -138 -6 0 -2 9 8 20 14 15 17 32 13
80 -4 60 4 80 16 38z m112 -20 c-10 -66 -26 -108 -41 -108 -11 0 -10 6 2 31 9
17 18 51 21 75 2 24 9 44 15 44 6 0 7 -17 3 -42z m-7769 -1 l-25 -33 24 -39
c33 -54 30 -67 -6 -27 -37 40 -38 61 -4 101 34 41 43 40 11 -2z m9093 5 c0
-15 -2 -15 -10 -2 -13 20 -13 33 0 25 6 -3 10 -14 10 -23z m-8950 3 c0 -9 -10
-29 -21 -44 -12 -17 -18 -34 -14 -41 5 -8 3 -11 -6 -8 -23 8 -22 34 3 72 25
38 38 45 38 21z m8507 9 c-3 -3 -12 -4 -19 -1 -8 3 -5 6 6 6 11 1 17 -2 13 -5z
m-7223 -13 c9 -13 -4 -42 -16 -35 -5 3 -7 12 -4 19 3 8 0 16 -7 19 -7 2 -5 5
5 5 9 1 19 -3 22 -8z m6034 -8 c2 -7 -3 -13 -12 -13 -18 0 -21 -15 -6 -25 19
-11 11 -45 -10 -45 -17 0 -19 6 -19 51 2 44 4 50 22 47 11 -2 22 -9 25 -15z
m108 5 c5 -8 2 -9 -11 -4 -11 4 -25 0 -37 -10 -21 -20 -37 -11 -18 11 15 18
56 20 66 3z m1277 -8 c-4 -16 0 -20 21 -20 18 0 24 4 20 15 -4 8 -1 15 5 15 6
0 11 -17 11 -39 0 -40 0 -40 -37 -38 -35 3 -38 6 -41 35 -3 26 -8 32 -28 32
-19 0 -24 -5 -24 -24 0 -15 7 -26 18 -29 10 -3 6 -5 -10 -6 -25 -1 -28 2 -28
33 0 33 2 35 38 39 20 2 42 4 49 5 6 1 9 -6 6 -18z m-8603 -9 c5 -11 10 -32
10 -46 0 -20 -4 -26 -17 -23 -19 4 -20 9 -8 46 4 16 2 22 -8 22 -9 0 -17 -14
-22 -37 -8 -45 -23 -27 -17 22 3 29 8 35 28 35 13 0 28 -9 34 -19z m83 12 c-8
-3 -13 -23 -13 -48 0 -24 -4 -47 -10 -50 -6 -4 -10 15 -10 49 0 52 2 56 23 55
12 0 16 -3 10 -6z m315 -39 c4 -48 -18 -75 -46 -57 -21 13 -26 41 -12 77 7 20
16 27 33 24 18 -2 23 -10 25 -44z m82 -4 c0 -37 -4 -50 -14 -50 -23 0 -28 17
-21 60 10 60 35 53 35 -10z m195 40 c18 -8 17 -9 -7 -9 -16 -1 -28 4 -28 9 0
12 8 12 35 0z m47 -16 c-7 -12 -11 -13 -17 -4 -4 7 -2 16 6 21 18 11 23 4 11
-17z m78 16 c0 -5 -9 -10 -20 -10 -11 0 -20 5 -20 10 0 6 9 10 20 10 11 0 20
-4 20 -10z m94 -6 c22 -21 20 -25 -10 -22 -15 2 -29 -3 -31 -9 -3 -9 6 -13 26
-13 17 0 31 -5 31 -11 0 -6 -16 -9 -37 -7 -31 2 -39 7 -41 26 -7 44 32 67 62
36z m6202 -6 c-21 -30 -20 -38 5 -38 12 0 18 4 13 11 -4 7 -1 10 7 7 8 -3 15
-12 17 -21 3 -14 -5 -17 -37 -17 -29 0 -41 4 -41 15 0 25 23 65 37 65 12 0 11
-4 -1 -22z m1227 0 c2 -13 8 -31 12 -40 6 -15 2 -18 -29 -18 -40 0 -43 7 -21
50 18 36 31 38 38 8z m-8203 -17 c0 -40 -9 -61 -26 -61 -11 0 -12 4 -4 19 5
11 10 31 10 45 0 14 5 26 10 26 6 0 10 -13 10 -29z m70 -12 c0 -32 -3 -40 -15
-35 -8 3 -15 1 -15 -4 0 -6 -4 -10 -10 -10 -5 0 -10 12 -10 26 0 19 4 25 15
20 10 -3 15 1 15 13 0 11 -6 22 -12 24 -7 3 -3 6 10 6 19 1 22 -4 22 -40z
m115 31 c-3 -5 -10 -10 -16 -10 -5 0 -9 5 -9 10 0 6 7 10 16 10 8 0 12 -4 9
-10z m693 -7 c2 -8 -6 -13 -20 -13 -20 -1 -21 -2 -5 -11 26 -15 21 -39 -8 -39
-22 0 -25 4 -25 33 0 19 3 37 7 41 11 10 46 3 51 -11z m5905 5 c2 -7 1 -22 -4
-33 -4 -11 -8 -15 -8 -10 -1 6 -4 20 -7 33 -7 23 10 32 19 10z m115 -2 c-21
-15 -23 -47 -6 -64 9 -9 6 -12 -15 -12 -21 0 -27 5 -27 23 0 48 11 67 39 67
24 -1 24 -2 9 -14z m906 -2 c11 -29 7 -64 -9 -64 -18 0 -20 31 -2 49 10 10 7
12 -13 9 -21 -2 -24 -8 -22 -30 3 -20 -1 -28 -12 -28 -17 0 -20 19 -10 58 8
27 58 32 68 6z m95 12 c-12 -10 -59 -15 -59 -6 0 5 14 10 32 10 17 0 29 -2 27
-4z m101 -10 c0 -8 -7 -13 -16 -12 -9 0 -19 -5 -21 -11 -3 -9 6 -13 27 -13 43
0 34 -24 -10 -28 -42 -4 -52 6 -44 46 6 27 11 32 35 32 18 0 29 -5 29 -14z
m123 -18 c-7 -36 -18 -48 -45 -48 -20 0 -25 34 -7 45 6 5 4 12 -8 21 -16 12
-14 13 24 14 l43 0 -7 -32z m-8615 5 c0 -10 3 -26 7 -35 5 -13 3 -18 -9 -18
-11 0 -16 9 -16 28 0 21 -2 24 -10 12 -5 -8 -10 -10 -10 -4 0 11 20 34 31 34
4 0 7 -8 7 -17z m1489 1 c8 -20 -21 -44 -53 -44 -22 0 -35 23 -27 48 7 19 72
15 80 -4z m5503 -34 c0 -38 -4 -50 -15 -50 -11 0 -15 11 -15 43 0 24 3 47 7
50 16 17 23 3 23 -43z m1174 35 c-19 -14 -18 -14 4 -15 15 0 22 -6 22 -20 0
-15 -7 -20 -25 -20 -22 0 -25 4 -25 35 0 29 4 35 22 35 21 0 21 0 2 -15z m626
-42 c-11 -17 -11 -17 -6 0 3 10 7 28 7 40 2 22 2 22 6 0 2 -12 -1 -30 -7 -40z
m-8180 34 c0 -8 -10 -22 -21 -33 -15 -13 -20 -14 -15 -4 3 8 9 23 12 33 7 20
24 23 24 4z m314 -2 c-5 -11 1 -15 21 -15 17 0 24 4 19 12 -4 7 -3 8 4 4 24
-14 11 -26 -28 -26 -41 0 -49 7 -28 28 16 16 19 15 12 -3z m116 -22 c0 -7 -4
-13 -10 -13 -5 0 -10 12 -10 28 0 21 2 24 10 12 5 -8 10 -21 10 -27z m6660 13
c0 -13 -7 -27 -16 -30 -28 -11 -54 -6 -54 9 0 8 -1 18 -2 22 -3 6 25 16 65 22
4 0 7 -10 7 -23z m-6584 -13 c-10 -10 -19 5 -10 18 6 11 8 11 12 0 2 -7 1 -15
-2 -18z m424 -4 c0 -11 -4 -17 -10 -14 -5 3 -10 15 -10 26 0 11 5 17 10 14 6
-3 10 -15 10 -26z m6835 22 c-3 -5 -1 -12 5 -16 5 -3 10 -10 10 -16 0 -12 -47
-12 -55 1 -11 18 3 40 25 40 12 0 19 -4 15 -9z m745 5 c0 -10 -32 -36 -43 -36
-7 0 -1 9 13 20 26 21 30 23 30 16z m-1136 -21 c3 -9 0 -15 -9 -15 -8 0 -15 7
-15 15 0 8 4 15 9 15 5 0 11 -7 15 -15z m1236 11 c0 -2 -8 -10 -17 -17 -16
-13 -17 -12 -4 4 13 16 21 21 21 13z m-1953 -48 c-3 -8 -6 -5 -6 6 -1 11 2 17
5 13 3 -3 4 -12 1 -19z m1508 -17 c-3 -6 -11 -11 -16 -11 -5 0 -4 6 3 14 14
16 24 13 13 -3z m-8641 -86 c-23 -31 -26 -42 -21 -83 6 -44 6 -46 -8 -22 -22
38 -18 66 16 105 40 45 48 45 13 0z m1818 8 c10 -9 18 -23 18 -32 0 -22 -37
-81 -51 -81 -7 0 -4 8 6 20 24 27 24 79 0 96 -13 9 -14 14 -5 14 7 0 22 -7 32
-17z m6624 -5 c-3 -13 -6 -34 -7 -48 -1 -23 -2 -23 -9 5 -13 49 -11 65 6 65
12 0 15 -6 10 -22z m-7916 -2 c0 -8 -4 -17 -9 -20 -13 -8 -2 -48 17 -63 14
-11 11 -13 -16 -13 l-32 0 0 55 c0 48 2 55 20 55 11 0 20 -6 20 -14z m379 -23
c11 -38 15 -80 7 -72 -10 11 -34 109 -26 109 5 0 14 -17 19 -37z m1341 23 c0
-9 -7 -12 -19 -9 -10 3 -22 0 -25 -6 -5 -7 3 -11 18 -11 26 0 32 -13 20 -44
-9 -24 -51 -20 -59 5 -10 29 2 67 23 72 32 9 42 7 42 -7z m4709 -37 c0 -29 6
-58 12 -65 14 -17 -2 -19 -19 -2 -18 18 -15 118 3 118 1 0 3 -23 4 -51z
m-6839 22 c0 -11 -5 -23 -11 -26 -6 -4 -14 -17 -19 -29 -8 -18 -9 -17 -9 11
-1 17 2 38 5 47 9 23 34 20 34 -3z m497 7 c14 -23 12 -88 -3 -88 -18 0 -41 43
-25 48 16 5 14 22 -4 22 -16 0 -20 12 -8 23 10 11 31 8 40 -5z m213 4 c0 -5
-9 -17 -20 -27 -25 -23 -21 -37 11 -46 22 -6 21 -7 -7 -8 -21 -1 -34 5 -38 15
-9 25 -7 33 14 54 21 21 40 26 40 12z m408 -9 c2 -7 -3 -13 -12 -13 -9 0 -16
-4 -16 -9 0 -5 -3 -16 -6 -25 -4 -12 0 -16 15 -16 12 0 21 -4 21 -10 0 -5 -13
-10 -30 -10 -29 0 -30 2 -30 43 0 24 3 47 7 51 11 10 46 3 51 -11z m402 2 c17
-21 5 -45 -22 -45 l-23 0 25 -20 25 -20 -32 0 c-33 0 -33 0 -33 50 0 46 2 50
24 50 13 0 29 -7 36 -15z m98 -27 c3 -38 -17 -64 -43 -54 -20 7 -19 55 2 78
23 26 37 18 41 -24z m192 30 c0 -34 -14 -88 -21 -88 -5 0 -9 23 -9 50 0 38 4
50 15 50 8 0 15 -6 15 -12z m107 0 c6 -7 13 -30 17 -50 l7 -38 -46 0 c-43 0
-45 1 -40 25 3 14 7 36 10 50 6 27 35 34 52 13z m113 -3 c0 -12 -7 -14 -26 -9
-20 5 -25 3 -22 -7 3 -8 15 -14 27 -13 16 0 21 -5 21 -23 0 -19 -5 -23 -30
-23 -28 0 -30 2 -30 38 0 45 5 52 37 52 14 0 23 -6 23 -15z m5195 -21 c0 -16
4 -35 8 -41 6 -9 2 -13 -12 -13 -18 0 -21 6 -21 46 0 32 4 44 13 41 6 -2 12
-17 12 -33z m923 17 c3 -10 -2 -12 -21 -7 -28 7 -49 -16 -39 -43 3 -8 0 -11
-7 -7 -15 10 -14 49 1 64 16 16 60 11 66 -7z m-7824 -7 c3 -9 6 -28 6 -43 0
-27 -2 -28 -37 -22 -34 6 -38 10 -41 38 -2 23 1 32 15 36 35 9 51 7 57 -9z
m276 0 c0 -9 -9 -18 -20 -21 -26 -7 -26 -21 2 -25 35 -5 34 -28 -1 -28 -28 0
-31 3 -31 29 0 16 3 36 6 45 8 21 44 21 44 0z m618 -25 c3 -31 -1 -37 -20 -43
-44 -11 -48 -8 -48 40 0 45 0 45 33 42 29 -3 32 -6 35 -39z m205 21 c13 -51
-19 -81 -60 -55 -38 25 -16 74 33 75 13 0 24 -8 27 -20z m5932 -15 c0 -28 -3
-30 -42 -33 -39 -3 -41 -2 -36 20 10 47 12 49 45 46 29 -3 33 -6 33 -33z m89
29 c9 -3 16 -15 16 -25 0 -14 -7 -19 -29 -19 -47 0 -46 -18 1 -23 l43 -4 -45
1 c-40 1 -45 4 -48 25 -3 15 3 30 14 38 20 15 26 16 48 7z m91 -40 c0 -21 -5
-34 -12 -34 -15 0 -15 5 -7 49 8 39 19 31 19 -15z m192 34 c-2 -7 2 -25 10
-40 11 -22 11 -28 1 -28 -16 0 -50 58 -42 71 8 14 36 11 31 -3z m131 -29 c3
-38 -9 -50 -44 -45 -15 2 -20 13 -22 45 l-3 42 33 -3 c30 -3 33 -6 36 -39z
m386 32 c3 -4 -8 -8 -24 -7 -17 1 -30 4 -30 9 0 10 48 9 54 -2z m-8124 -21 c6
-12 8 -31 4 -43 -7 -21 -8 -20 -14 8 -6 35 -40 49 -40 16 0 -12 5 -21 12 -21
8 0 9 -3 2 -10 -14 -14 -44 -2 -44 16 0 48 59 73 80 34z m42 8 c-5 -7 -12 -24
-15 -38 -4 -22 -4 -21 -6 6 -1 31 5 44 22 44 6 0 5 -5 -1 -12z m48 -2 c0 -22
-11 -46 -21 -46 -5 0 -8 14 -7 30 2 29 28 44 28 16z m1110 3 c0 -6 -9 -9 -20
-6 -17 4 -20 0 -20 -24 0 -19 -5 -29 -15 -29 -18 0 -18 -1 -4 39 8 23 17 31
35 31 13 0 24 -5 24 -11z m5655 1 c19 -8 19 -9 -2 -9 -16 -1 -23 -7 -23 -20 0
-11 10 -27 23 -36 22 -16 22 -16 -13 -13 -33 3 -35 5 -38 46 -3 45 7 52 53 32z
m975 3 c0 -5 3 -18 6 -30 5 -18 2 -23 -12 -23 -13 0 -15 3 -7 8 10 7 10 12 -1
27 -12 16 -16 17 -30 6 -15 -13 -15 -15 1 -27 10 -7 13 -14 7 -14 -6 0 -17 7
-24 15 -10 12 -10 18 0 30 13 15 60 21 60 8z m-8214 -24 c5 1 9 -9 9 -21 0
-27 -30 -36 -39 -12 -9 22 3 61 14 44 4 -6 11 -11 16 -11z m1300 9 c4 -5 -20
-8 -53 -8 -33 0 -63 -3 -66 -7 -13 -12 -57 -12 -57 1 0 7 2 15 4 17 8 7 164 4
172 -3z m5704 -33 c0 -24 -5 -35 -14 -35 -21 0 -28 15 -20 45 10 39 34 32 34
-10z m403 13 c7 -26 1 -38 -19 -38 -11 0 -13 4 -5 17 7 13 5 21 -7 30 -15 11
-15 12 4 13 14 0 24 -8 27 -22z m1077 2 c-39 -7 -45 -5 -36 8 3 5 20 6 38 3
l33 -5 -35 -6z m-8218 -43 c-9 -18 -24 12 -16 34 l8 24 6 -25 c4 -14 5 -29 2
-33z m8032 38 c3 -9 0 -15 -8 -15 -7 0 -13 7 -13 15 0 8 4 15 8 15 4 0 9 -7
13 -15z m106 5 c0 -5 -9 -10 -19 -10 -11 0 -23 5 -26 10 -4 6 5 10 19 10 14 0
26 -4 26 -10z m-470 -26 c0 -2 -18 -4 -41 -4 -22 0 -38 4 -35 8 5 8 76 4 76
-4z m457 0 c-3 -3 -12 -4 -19 -1 -8 3 -5 6 6 6 11 1 17 -2 13 -5z m111 -1
c-10 -2 -28 -2 -40 0 -13 2 -5 4 17 4 22 1 32 -1 23 -4z m-8001 -130 c16 -39
16 -46 3 -38 -5 3 -10 -3 -10 -14 0 -11 -10 -25 -21 -32 -12 -6 -20 -7 -17 -2
2 4 10 21 18 37 13 25 12 31 -3 58 -9 16 -17 34 -17 40 0 19 33 -16 47 -49z
m6734 6 c-25 -41 -27 -76 -4 -109 17 -24 17 -25 -2 -10 -30 22 -35 32 -35 65
0 18 11 43 27 62 33 41 41 36 14 -8z m1185 -35 c7 -27 -21 -84 -41 -84 -11 0
-10 5 5 20 25 25 25 50 0 103 l-21 42 26 -30 c14 -16 28 -40 31 -51z m-7757
12 c0 -21 0 -21 -9 2 -5 12 -16 25 -25 28 -8 4 -15 10 -15 15 0 5 11 2 25 -7
14 -9 25 -25 24 -38z m7859 14 c28 -41 27 -48 -4 -85 -18 -20 -24 -24 -19 -10
19 49 17 77 -5 107 -13 18 -17 29 -9 26 8 -3 24 -19 37 -38z m-7450 23 c-21
-5 -25 -62 -6 -81 6 -6 9 -15 5 -18 -14 -14 -37 27 -37 65 0 38 2 41 28 40 16
-1 20 -3 10 -6z m292 -8 c0 -8 -4 -15 -10 -15 -5 0 -10 7 -10 15 0 8 5 15 10
15 6 0 10 -7 10 -15z m220 -11 c0 -8 -4 -14 -9 -14 -18 0 -21 -45 -4 -57 15
-12 13 -13 -11 -13 -28 0 -28 1 -23 46 5 44 21 69 39 58 4 -3 8 -12 8 -20z
m6718 -23 c12 -33 -9 -91 -33 -91 -13 0 -12 5 5 28 25 34 18 82 -12 90 -15 3
-16 7 -7 13 17 10 35 -5 47 -40z m-8294 14 c-16 -24 -12 -65 7 -65 5 0 9 -4 9
-10 0 -16 -14 -12 -38 10 -22 21 -21 41 6 73 23 26 35 21 16 -8z m956 -46 c0
-18 -5 -29 -14 -29 -10 0 -15 15 -18 51 -3 49 -3 50 15 28 9 -11 17 -34 17
-50z m702 21 c-5 -66 -29 -69 -25 -2 1 26 2 48 2 50 1 1 7 2 14 2 8 0 11 -15
9 -50z m118 5 c0 -41 -2 -45 -25 -45 -16 0 -25 6 -25 15 0 8 5 15 11 15 5 0 7
-6 4 -12 -4 -7 1 -4 9 6 9 11 16 26 16 33 0 17 -27 17 -33 1 -2 -7 -7 -10 -11
-7 -9 9 22 39 40 39 10 0 14 -13 14 -45z m90 20 c0 -14 -2 -25 -4 -25 -2 0
-11 11 -20 25 -16 24 -16 25 4 25 15 0 20 -7 20 -25z m110 -31 c0 -37 -3 -44
-20 -44 -36 0 -55 71 -23 88 29 17 43 3 43 -44z m93 49 c3 -5 7 -26 8 -48 4
-39 3 -40 -26 -40 -27 0 -30 4 -33 33 -2 19 -1 40 2 48 6 15 41 19 49 7z m91
-3 c22 -8 26 -16 26 -49 0 -38 -1 -39 -35 -39 l-35 0 0 49 c0 52 3 55 44 39z
m5841 0 c3 -5 -3 -10 -14 -10 -12 0 -21 -7 -21 -15 0 -8 9 -15 20 -15 24 0 27
-25 4 -34 -25 -10 -33 -7 -44 14 -18 34 35 92 55 60z m193 -2 c15 -15 16 -70
1 -85 -17 -17 -50 -3 -47 20 2 11 9 22 16 25 7 2 10 -2 6 -12 -3 -9 -1 -16 6
-16 6 0 10 11 8 28 -2 18 -9 27 -20 26 -10 -1 -14 4 -11 12 6 17 25 18 41 2z
m-7798 -25 c0 -16 3 -38 6 -50 7 -27 -8 -30 -49 -10 -44 20 -43 73 2 80 14 2
29 5 34 6 4 0 7 -11 7 -26z m1969 21 c26 -6 31 -11 31 -35 0 -16 -4 -29 -10
-29 -5 0 -10 8 -10 19 0 23 -25 46 -34 32 -4 -6 -4 -23 0 -38 4 -19 3 -25 -3
-18 -14 13 -25 75 -14 75 5 0 23 -3 40 -6z m99 -37 c2 -32 -1 -38 -15 -35 -17
3 -37 54 -27 70 14 23 39 1 42 -35z m19 -4 c-3 -10 -5 -2 -5 17 0 19 2 27 5
18 2 -10 2 -26 0 -35z m71 35 c28 -28 7 -78 -32 -78 -20 0 -20 1 2 16 29 20
28 52 0 64 -22 8 -22 9 -2 9 11 1 25 -4 32 -11z m-2462 -45 c7 -21 11 -39 8
-42 -3 -3 -7 5 -11 17 -3 12 -9 22 -14 22 -5 0 -9 12 -9 27 0 33 10 24 26 -24z
m65 22 c2 -41 4 -45 14 -45 6 1 9 17 9 36 -2 50 20 37 24 -14 3 -38 1 -42 -20
-42 -33 0 -48 18 -48 57 0 38 19 45 21 8z m128 -17 c0 -24 -3 -36 -6 -28 -14
42 -17 44 -23 10 -7 -34 -7 -33 -9 13 -1 41 2 47 19 47 17 0 20 -6 19 -42z
m2006 31 c8 -12 -3 -64 -12 -55 -3 3 -6 15 -7 27 0 12 -7 24 -15 27 -11 4 -13
-3 -8 -32 4 -27 2 -36 -9 -36 -10 0 -14 12 -14 40 0 38 2 40 29 40 17 0 33 -5
36 -11z m-2068 -51 c-2 -13 -4 -5 -4 17 -1 22 1 32 4 23 2 -10 2 -28 0 -40z
m633 38 c0 -24 -12 -46 -25 -46 -7 0 -12 12 -11 30 1 21 6 30 19 30 9 0 17 -6
17 -14z m330 -16 c0 -17 -28 -36 -38 -25 -3 3 0 5 6 5 7 0 12 5 12 10 0 6 -9
10 -20 10 -14 0 -20 -7 -20 -21 0 -11 -4 -17 -10 -14 -17 11 -12 53 8 57 32 7
62 -4 62 -22z m84 24 c12 -5 13 -10 5 -25 -13 -25 -49 -25 -49 -1 0 30 13 38
44 26z m1258 -26 c-9 -9 -12 -7 -12 12 0 19 3 21 12 12 9 -9 9 -15 0 -24z
m4464 -10 c-1 -55 -26 -65 -26 -10 0 21 3 42 7 45 14 15 20 5 19 -35z m892 36
c15 -4 22 -14 22 -30 0 -25 -25 -43 -38 -29 -4 4 -1 10 6 12 19 7 14 23 -8 23
-13 0 -20 -7 -20 -20 0 -23 -40 -43 -74 -38 -16 2 -21 10 -21 33 1 27 5 30 34
33 20 2 37 -2 42 -10 7 -10 11 -7 15 10 7 24 8 25 42 16z m232 -18 c-1 -26
-18 -39 -44 -32 -32 8 -33 20 -5 40 23 15 49 11 49 -8z m-7993 -23 c-3 -10 -5
-4 -5 12 0 17 2 24 5 18 2 -7 2 -21 0 -30z m623 29 c0 -14 -39 -32 -46 -21 -4
6 0 15 7 20 17 11 39 12 39 1z m45 -2 c7 -11 -30 -50 -47 -50 -7 0 -4 7 7 16
11 8 19 22 17 30 -3 16 14 19 23 4z m562 -6 c8 -21 -19 -38 -30 -18 -9 16 -1
34 14 34 5 0 12 -7 16 -16z m113 -14 c0 -23 -4 -30 -20 -30 -11 0 -20 5 -20
10 0 6 7 10 15 10 8 0 15 7 15 15 0 19 -14 19 -30 0 -7 -9 -15 -13 -18 -10 -7
7 29 34 46 35 7 0 12 -12 12 -30z m6002 -2 c-14 -14 -16 -38 -3 -38 5 0 17 7
25 16 15 14 16 14 16 -5 0 -22 -39 -39 -59 -26 -15 9 -14 72 2 78 19 7 33 -11
19 -25z m236 -2 c2 -16 -1 -33 -7 -39 -8 -8 -11 -2 -11 21 0 22 -5 32 -15 32
-8 0 -15 -9 -15 -20 0 -11 6 -20 13 -20 8 0 7 -4 -3 -10 -25 -16 -30 -12 -30
24 0 28 4 35 23 39 35 7 42 2 45 -27z m-316 7 c19 -17 24 -43 9 -43 -5 0 -17
-3 -26 -6 -13 -5 -15 -2 -9 20 5 20 2 26 -9 26 -23 0 -29 -16 -17 -42 11 -22
10 -22 -4 -4 -17 21 -21 48 -9 59 12 12 46 7 65 -10z m-5514 -20 c2 -8 -5 -13
-17 -13 -12 0 -21 6 -21 16 0 18 31 15 38 -3z m1900 -573 c3 -392 6 -517 16
-525 50 -41 60 -108 22 -144 -55 -52 -146 -10 -146 67 0 26 25 84 32 76 4 -3
8 235 10 530 3 456 5 538 18 546 10 6 19 2 30 -13 13 -19 15 -92 18 -537z
m-3227 390 c-6 -20 -20 -45 -32 -55 -18 -17 -17 -14 5 25 14 25 26 61 27 80 1
27 3 29 6 10 3 -13 0 -40 -6 -60z m105 29 c18 -36 18 -60 -1 -53 -8 3 -14 9
-13 12 3 25 -4 53 -17 66 -8 8 -15 18 -15 22 0 13 31 -20 46 -47z m824 45 c0
-3 -9 -17 -20 -31 -12 -16 -20 -41 -20 -64 0 -30 -3 -37 -15 -33 -28 11 -16
72 23 117 15 17 32 23 32 11z m7744 -28 c22 -46 20 -62 -10 -102 -32 -42 -45
-38 -15 4 12 17 21 40 21 52 0 24 -17 61 -34 72 -7 5 -5 8 5 8 9 0 24 -15 33
-34z m-9218 2 c-20 -28 -20 -59 -1 -84 23 -31 17 -40 -10 -14 -30 29 -32 59
-4 94 25 32 36 35 15 4z m463 -56 c-17 -50 -25 -62 -42 -62 l-21 0 22 20 c11
11 24 37 27 57 10 57 14 68 25 57 7 -7 3 -32 -11 -72z m6941 73 c0 -2 -10 -23
-22 -46 -17 -34 -19 -47 -11 -69 9 -24 8 -27 -8 -23 -13 4 -19 14 -19 35 0 32
35 108 50 108 6 0 10 -2 10 -5z m458 -1 c19 -5 22 -13 22 -53 0 -33 -3 -42
-10 -31 -5 8 -10 25 -10 36 0 12 -10 29 -22 37 -24 17 -17 21 20 11z m1238
-11 c23 -31 12 -113 -16 -113 -5 0 -2 12 5 28 16 29 12 57 -13 85 -11 13 -12
17 -2 17 7 0 19 -8 26 -17z m-8972 -2 c3 -5 -1 -11 -9 -15 -21 -8 -19 -56 3
-72 16 -12 16 -13 0 -14 -22 0 -38 29 -38 69 0 33 30 55 44 32z m1036 -3 c0
-7 -13 -13 -30 -14 -17 -1 -30 2 -30 7 0 6 10 10 53 18 4 0 7 -5 7 -11z m6113
-19 c-10 -20 -13 -45 -10 -72 5 -38 4 -40 -9 -23 -20 28 -17 69 7 100 27 34
31 33 12 -5z m-7085 -24 c0 -27 -4 -35 -18 -35 -12 0 -18 7 -17 19 0 11 5 17
10 14 5 -3 8 3 7 13 -3 28 -1 36 9 30 5 -3 9 -22 9 -41z m116 39 c23 -9 20
-50 -4 -67 -11 -8 -32 -12 -45 -9 -20 3 -25 10 -25 36 0 18 3 36 7 39 8 9 46
9 67 1z m100 -21 c-9 -37 -29 -57 -48 -50 -23 9 -20 26 4 20 11 -3 20 0 20 6
0 6 -9 16 -20 23 -30 19 -24 28 15 28 33 0 35 -1 29 -27z m535 0 c0 -16 -4
-37 -9 -48 -6 -15 -9 -8 -9 28 -1 26 4 47 9 47 6 0 10 -12 9 -27z m129 9 c3
-11 0 -12 -16 -3 -28 15 -29 15 -35 -15 -4 -23 -2 -25 19 -21 13 2 24 1 24 -3
0 -4 -13 -10 -30 -12 -28 -4 -30 -2 -30 27 0 17 3 35 7 39 12 11 56 2 61 -12z
m194 -22 c-13 -30 -22 -40 -37 -38 -12 2 -21 12 -23 26 -6 39 5 52 42 52 l35
0 -17 -40z m91 33 c-7 -2 -19 -2 -25 0 -7 3 -2 5 12 5 14 0 19 -2 13 -5z
m6247 -15 c0 -5 -9 -7 -19 -3 -11 3 -22 1 -26 -5 -4 -6 6 -10 24 -10 17 0 31
-4 31 -10 0 -5 -9 -10 -20 -10 -12 0 -17 -5 -14 -14 3 -8 -3 -16 -14 -19 -17
-4 -21 1 -24 37 -3 22 0 44 4 47 13 9 58 -1 58 -13z m390 12 c0 -5 -5 -10 -11
-10 -7 0 -10 -15 -7 -40 2 -28 0 -40 -9 -40 -14 0 -18 55 -7 84 7 17 34 22 34
6z m483 -26 c-17 -17 -24 -33 -20 -50 5 -26 -10 -33 -19 -9 -8 20 14 73 35 84
28 16 31 1 4 -25z m-7617 -6 c-3 -27 -8 -34 -30 -36 -14 -2 -26 1 -26 7 0 6 9
11 20 11 21 0 27 15 10 25 -13 8 -3 25 16 25 10 0 13 -9 10 -32z m6134 -13 c0
-45 -12 -60 -24 -29 -12 31 -7 74 9 74 11 0 15 -12 15 -45z m503 3 c-7 -52 -8
-54 -28 -38 -18 15 -19 34 -5 61 20 36 39 23 33 -23z m217 2 c0 -33 -3 -40
-20 -40 -22 0 -27 15 -7 23 6 3 0 6 -15 6 -16 1 -27 -2 -27 -6 3 -20 -2 -34
-11 -28 -11 7 -13 45 -4 69 4 11 19 16 45 16 39 0 39 0 39 -40z m78 -2 c3 -35
1 -38 -22 -38 -19 0 -26 5 -26 20 0 11 5 20 11 20 5 0 8 -4 4 -9 -3 -5 -1 -12
4 -15 5 -4 12 -2 16 4 10 16 -4 48 -23 54 -9 2 -6 4 8 3 21 -2 25 -8 28 -39z
m319 6 c-7 -44 -4 -41 -47 -46 -39 -3 -47 11 -31 55 9 23 17 27 47 27 36 0 37
0 31 -36z m93 12 c0 -41 -11 -56 -40 -56 -20 0 -31 6 -35 20 -10 31 12 60 45
60 25 0 30 -4 30 -24z m90 5 c5 -11 10 -24 10 -30 0 -16 -30 -41 -51 -41 -15
0 -19 7 -19 38 0 21 3 42 7 45 13 14 43 7 53 -12z m98 -23 c3 -32 0 -38 -17
-38 -28 0 -35 17 -10 23 12 3 19 11 17 18 -8 25 -29 20 -42 -11 -16 -39 -31
-24 -21 21 6 27 10 30 38 27 29 -3 32 -7 35 -40z m197 34 c18 -13 10 -47 -19
-82 -15 -19 -25 -27 -22 -17 3 10 6 39 6 63 0 43 11 54 35 36z m120 -4 c1 -2
6 -18 10 -36 8 -38 -10 -50 -47 -31 -29 15 -38 28 -38 57 0 20 4 22 36 18 20
-3 37 -6 39 -8z m74 -14 c-18 -22 -4 -42 27 -36 20 4 25 1 22 -9 -5 -15 -68
-21 -88 -9 -17 11 -3 68 18 73 25 5 35 -3 21 -19z m147 -8 c8 -46 1 -55 -38
-47 -28 6 -33 12 -36 38 -3 28 0 32 25 36 15 2 31 5 35 6 4 0 10 -14 14 -33z
m-7561 14 c4 -6 -7 -10 -24 -10 -33 0 -42 -16 -15 -27 9 -3 20 0 25 8 6 11 9
8 9 -8 0 -23 -14 -28 -44 -17 -16 6 -22 45 -9 57 10 11 51 8 58 -3z m7655 -9
c20 -39 13 -52 -27 -49 -35 3 -38 6 -41 36 -3 30 -1 32 27 32 20 0 34 -7 41
-19z m-7880 -22 c0 -10 -4 -19 -10 -19 -5 0 -10 12 -10 26 0 14 4 23 10 19 6
-3 10 -15 10 -26z m6720 -44 c0 -8 -7 -15 -15 -15 -16 0 -20 12 -8 23 11 12
23 8 23 -8z m-7740 -80 c-21 -34 -22 -43 -5 -90 6 -17 4 -17 -14 4 -27 30 -26
41 6 90 32 50 44 46 13 -4z m1799 -30 c39 -38 43 -46 36 -71 l-8 -29 -7 37
c-6 36 -34 78 -50 78 -5 0 -10 -10 -14 -22 -3 -13 -19 -39 -36 -58 -29 -32
-30 -33 -11 -4 34 52 37 81 10 105 l-24 20 30 -6 c17 -3 50 -26 74 -50z
m-1245 -9 c4 -43 -4 -50 -44 -41 -24 5 -30 12 -30 33 1 23 2 25 13 11 7 -8 20
-18 30 -22 13 -5 17 -1 17 18 0 14 -6 25 -12 25 -9 0 -8 3 2 10 19 12 21 9 24
-34z m71 24 c-3 -5 0 -10 5 -12 6 -2 13 -20 17 -41 5 -36 5 -37 -26 -37 -17 0
-31 5 -31 10 0 6 9 10 20 10 15 0 20 7 20 26 0 14 -4 23 -10 19 -5 -3 -10 -13
-10 -21 0 -8 -4 -13 -8 -10 -4 3 -6 20 -4 40 3 24 8 33 18 29 8 -3 12 -9 9
-13z m105 5 c0 -3 -7 -17 -16 -31 -16 -23 -16 -26 2 -39 22 -16 14 -29 -13
-21 -27 9 -20 96 8 96 10 0 19 -2 19 -5z m506 -11 c-3 -9 -6 -29 -6 -45 0 -22
-5 -29 -20 -29 -17 0 -19 4 -13 28 3 15 6 35 5 45 0 11 6 17 20 17 14 0 18 -5
14 -16z m378 10 c9 -3 16 -10 16 -16 0 -5 -4 -7 -8 -4 -4 2 -14 1 -22 -5 -11
-6 -6 -9 17 -9 35 0 46 -10 37 -35 -5 -11 -16 -15 -38 -13 -29 3 -31 6 -34 46
-3 42 2 48 32 36z m334 -31 c3 -30 1 -33 -23 -33 -22 0 -25 3 -19 25 4 15 2
25 -5 25 -6 0 -11 -5 -11 -12 0 -6 -3 -9 -6 -5 -15 15 7 38 33 35 23 -2 29 -8
31 -35z m-1817 18 c-10 -6 -12 -20 -8 -46 4 -26 3 -35 -6 -32 -7 2 -13 22 -15
45 -3 38 -1 42 20 42 17 0 19 -3 9 -9z m117 -33 c3 -30 0 -38 -14 -38 -13 0
-14 3 -5 14 14 17 4 46 -16 46 -11 0 -14 -8 -11 -30 3 -20 0 -30 -9 -30 -17 0
-17 52 -1 68 7 7 22 11 33 10 15 -2 21 -12 23 -40z m87 2 c0 -29 -4 -36 -24
-38 -19 -3 -22 0 -17 13 3 9 6 28 6 42 0 18 5 24 18 21 12 -2 17 -13 17 -38z
m62 -12 c-2 -13 -4 -5 -4 17 -1 22 1 32 4 23 2 -10 2 -28 0 -40z m51 19 c2
-16 -2 -27 -8 -27 -7 0 -10 7 -6 15 3 8 -2 22 -11 31 -15 15 -15 16 3 12 12
-2 20 -13 22 -31z m390 22 c-2 -6 -7 -10 -11 -10 -4 1 -14 1 -22 1 -8 0 -15 5
-15 10 0 6 12 10 26 10 14 0 24 -5 22 -11z m216 -12 c10 -41 -3 -67 -35 -67
-28 0 -29 2 -29 45 0 43 1 45 29 45 22 0 30 -6 35 -23z m92 9 c8 -21 -15 -58
-33 -54 -22 4 -29 28 -9 28 9 0 16 5 16 11 0 6 -9 8 -22 3 -20 -6 -21 -5 -9
10 17 20 50 21 57 2z m208 -2 c3 -8 3 -27 0 -40 -5 -20 -12 -24 -33 -22 -22 3
-26 8 -29 41 -3 35 -2 37 26 37 18 0 32 -6 36 -16z m100 7 c3 -4 -6 -13 -19
-19 -14 -7 -25 -18 -25 -27 0 -8 -4 -15 -10 -15 -11 0 -14 53 -3 63 9 10 51 9
57 -2z m83 3 c15 -4 22 -15 25 -40 4 -35 4 -35 -31 -32 -34 3 -36 5 -39 41 -3
39 2 42 45 31z m521 -31 c3 -32 2 -33 -32 -33 -33 0 -36 3 -36 28 0 36 8 44
40 40 20 -2 26 -9 28 -35z m99 21 c3 -8 0 -21 -7 -27 -10 -10 -12 -8 -7 6 4 9
5 17 3 17 -3 0 -12 3 -22 7 -13 5 -15 3 -8 -8 4 -8 7 -23 5 -33 -2 -15 1 -17
16 -12 17 7 17 6 1 -10 -22 -23 -35 -11 -40 36 -3 38 -2 40 25 40 16 0 30 -7
34 -16z m-2277 -29 c0 -19 -4 -35 -9 -35 -5 0 -11 16 -13 35 -3 24 0 35 9 35
8 0 13 -13 13 -35z m1080 23 c-1 -42 -13 -58 -46 -58 -38 0 -48 11 -40 46 5
20 12 24 46 24 25 0 40 -5 40 -12z m6120 2 c0 -5 -4 -10 -10 -10 -5 0 -10 5
-10 10 0 6 5 10 10 10 6 0 10 -4 10 -10z m580 -9 c0 -11 3 -26 6 -35 10 -27
-11 -18 -29 13 -17 29 -14 41 10 41 7 0 13 -9 13 -19z m-680 -14 c0 -13 5 -28
12 -35 9 -9 7 -12 -10 -12 -19 0 -21 4 -16 26 4 17 2 29 -7 35 -11 7 -10 9 4
9 11 0 17 -8 17 -23z m190 -6 c0 -25 5 -30 28 -34 21 -3 19 -4 -11 -6 -37 -1
-38 0 -35 34 3 42 18 47 18 6z m120 19 c0 -5 -4 -10 -10 -10 -16 0 -12 -21 7
-43 17 -18 17 -19 -6 -16 -19 3 -24 10 -26 42 -2 30 1 37 17 37 10 0 18 -4 18
-10z m91 -7 c13 -15 12 -15 -6 -6 -11 6 -26 8 -32 6 -7 -3 -13 0 -13 6 0 17
36 13 51 -6z m104 7 c4 -6 -7 -10 -24 -10 -17 0 -31 5 -31 10 0 6 11 10 24 10
14 0 28 -4 31 -10z m85 1 c0 -5 -7 -8 -16 -7 -9 0 -18 -7 -20 -17 -5 -33 -14
-32 -14 1 0 27 4 32 25 32 14 0 25 -4 25 -9z m-7723 -33 c-3 -7 -5 -2 -5 12 0
14 2 19 5 13 2 -7 2 -19 0 -25z m7029 2 c1 -23 -3 -30 -17 -30 -13 0 -19 7
-19 23 0 46 34 52 36 7z m-6046 -2 c0 -13 -8 -18 -25 -18 -18 0 -25 5 -25 20
0 15 6 19 25 18 17 -2 25 -8 25 -20z m6255 -36 c-9 -9 -25 11 -25 31 1 21 1
21 15 -3 7 -14 12 -27 10 -28z m305 28 c0 -9 -42 -21 -49 -15 -2 3 1 5 9 5 9
0 10 3 1 14 -9 11 -6 12 14 8 14 -2 25 -8 25 -12z m90 -12 c0 -5 -11 -8 -25
-8 -18 0 -25 5 -25 19 0 17 3 18 25 8 14 -7 25 -15 25 -19z m93 -5 c-7 -2 -19
-2 -25 0 -7 3 -2 5 12 5 14 0 19 -2 13 -5z m-7125 -120 c2 -8 -6 -14 -20 -14
l-23 -2 23 -4 c31 -6 28 -23 -5 -24 l-28 -2 28 -4 c36 -6 35 -23 -3 -23 -28 0
-30 2 -30 39 0 22 6 42 13 44 19 8 40 3 45 -10z m292 8 c0 -10 -42 -23 -49
-15 -7 6 20 24 37 24 6 0 12 -4 12 -9z m210 0 c0 -6 -4 -12 -9 -15 -5 -3 -5
-22 -1 -42 7 -30 6 -35 -8 -32 -13 2 -16 12 -14 36 4 39 -15 43 -21 5 -3 -23
-4 -22 -6 9 0 21 4 38 12 41 21 9 47 7 47 -2z m295 0 c3 -6 -1 -13 -8 -18 -26
-16 -28 -43 -4 -52 20 -8 20 -10 5 -16 -35 -14 -51 2 -43 43 4 20 9 40 11 44
7 11 32 10 39 -1z m-1224 -41 c-7 -32 -8 -33 -15 -12 -5 14 -3 29 5 38 16 20
19 15 10 -26z m112 5 c-20 -41 -28 -39 -18 4 4 17 13 31 21 31 11 0 11 -6 -3
-35z m95 24 c-10 -5 -18 -21 -18 -34 0 -14 -4 -25 -10 -25 -5 0 -9 16 -7 35 2
30 6 35 27 35 22 -1 23 -2 8 -11z m124 -28 c3 -35 1 -41 -21 -46 -30 -8 -44 5
-39 36 2 19 9 24 28 22 14 -1 19 1 13 3 -17 7 -16 24 1 24 9 0 15 -14 18 -39z
m193 30 c-25 -5 -31 -12 -36 -41 -4 -19 -7 -26 -8 -15 -1 11 -4 30 -7 43 -6
20 -3 22 37 21 39 -1 40 -2 14 -8z m74 -43 c9 -26 9 -29 -4 -18 -8 7 -15 20
-15 29 0 9 -6 23 -12 31 -11 12 -10 12 4 1 9 -6 21 -26 27 -43z m423 15 c6
-45 8 -42 -23 -45 -22 -3 -24 1 -25 40 -1 37 1 42 21 42 19 0 24 -7 27 -37z
m108 22 c0 -18 -17 -20 -22 -3 -2 6 -10 8 -16 4 -15 -9 -16 -46 -1 -46 5 0 7
5 4 10 -3 6 3 10 14 10 14 0 21 -6 21 -20 0 -16 -7 -20 -35 -20 -30 0 -35 3
-35 24 0 42 11 56 41 56 19 0 29 -5 29 -15z m285 6 c3 -6 -3 -15 -12 -20 -17
-10 -17 -12 0 -25 22 -17 22 -26 -3 -26 -17 0 -20 7 -20 40 0 28 4 40 14 40 8
0 17 -4 21 -9z m90 0 c3 -5 -4 -12 -15 -16 -26 -8 -17 -25 10 -18 15 4 20 0
20 -16 0 -16 -6 -21 -27 -21 -22 0 -25 2 -13 10 13 9 7 14 -12 11 -13 -2 -9
47 5 52 19 8 25 8 32 -2z m115 -6 c10 -12 10 -15 -3 -15 -8 0 -20 7 -27 15
-10 12 -10 15 3 15 8 0 20 -7 27 -15z m-820 -5 c0 -5 -7 -10 -16 -10 -8 0 -12
5 -9 10 3 6 10 10 16 10 5 0 9 -4 9 -10z m904 4 c24 -9 19 -24 -9 -24 -18 0
-23 4 -19 15 7 17 7 17 28 9z m115 -3 c9 -6 10 -11 2 -15 -6 -4 -16 -4 -21 -1
-6 4 -17 1 -25 -5 -20 -17 -19 -5 1 14 18 18 24 19 43 7z m108 -23 c2 -26 -1
-28 -33 -28 -19 0 -34 5 -34 10 0 6 11 10 25 10 14 0 25 4 25 8 0 17 -13 21
-31 11 -11 -5 -19 -6 -19 -1 0 16 14 23 39 20 20 -2 26 -9 28 -30z m103 23 c0
-8 -52 -23 -59 -16 -1 2 0 8 4 14 8 13 55 15 55 2z m-2191 -18 c1 9 6 17 12
17 9 0 5 -47 -5 -58 -9 -8 -36 13 -36 27 0 26 13 35 21 14 7 -17 8 -17 8 0z
m1491 6 c0 -6 -7 -9 -15 -5 -18 6 -45 -2 -45 -15 0 -5 16 -9 36 -9 21 0 33 -4
29 -10 -7 -11 -74 -10 -80 0 -2 4 3 16 11 28 16 23 64 31 64 11z m276 -34 c2
-16 -2 -25 -12 -25 -10 0 -14 12 -14 37 0 28 3 34 12 25 6 -6 12 -23 14 -37z
m-916 4 c0 -6 -4 -7 -10 -4 -5 3 -10 11 -10 16 0 6 5 7 10 4 6 -3 10 -11 10
-16z m115 -1 c11 -16 12 -24 4 -27 -12 -4 -39 25 -39 41 0 16 19 8 35 -14z
m915 -9 c0 -5 -9 -9 -20 -9 -11 0 -20 6 -20 14 0 9 7 12 20 9 11 -3 20 -9 20
-14z m100 1 c0 -5 -9 -10 -20 -10 -11 0 -20 5 -20 10 0 6 9 10 20 10 11 0 20
-4 20 -10z m205 0 c-3 -5 -17 -10 -31 -10 -13 0 -24 5 -24 10 0 6 14 10 31 10
17 0 28 -4 24 -10z m-1798 -6 c-3 -3 -12 -4 -19 -1 -8 3 -5 6 6 6 11 1 17 -2
13 -5z m-112 -14 c3 -5 1 -10 -4 -10 -6 0 -11 5 -11 10 0 6 2 10 4 10 3 0 8
-4 11 -10z m1511 -103 c-8 -12 -16 -39 -18 -60 -3 -48 -11 -47 -25 4 -10 38
-9 41 13 51 13 6 24 15 24 20 0 4 5 8 10 8 6 0 4 -10 -4 -23z m-806 -1 c0 -2
3 -11 6 -20 4 -10 -5 -20 -25 -31 -28 -14 -31 -14 -31 0 0 25 19 55 35 55 8 0
15 -2 15 -4z m398 -26 c3 -8 -2 -10 -17 -5 -12 4 -21 2 -21 -4 0 -6 9 -11 20
-11 11 0 20 -5 20 -11 0 -5 -10 -9 -22 -7 -17 2 -22 -1 -20 -14 2 -10 -2 -18
-9 -18 -7 0 -9 9 -5 23 3 12 6 34 6 49 0 24 3 26 22 19 12 -4 24 -14 26 -21z
m496 18 c13 -42 16 -69 6 -63 -5 3 -10 15 -10 26 0 11 -7 22 -15 25 -8 4 -15
10 -15 15 0 14 30 11 34 -3z m-1719 -8 c3 -6 -1 -7 -9 -4 -18 7 -21 14 -7 14
6 0 13 -4 16 -10z m715 -35 c0 -38 -3 -45 -19 -45 -17 0 -18 4 -11 31 5 16 6
37 3 45 -3 8 1 14 11 14 12 0 16 -10 16 -45z m620 24 c0 -6 -4 -7 -10 -4 -5 3
-10 11 -10 16 0 6 5 7 10 4 6 -3 10 -11 10 -16z m185 11 c3 -6 -4 -10 -17 -10
-21 -1 -21 -2 -6 -13 24 -19 35 -67 15 -67 -27 0 -45 27 -39 57 7 37 33 56 47
33z m606 -3 c-1 -12 -15 -9 -19 4 -3 6 1 10 8 8 6 -3 11 -8 11 -12z m99 3 c0
-5 -7 -10 -15 -10 -8 0 -15 5 -15 10 0 6 7 10 15 10 8 0 15 -4 15 -10z m-2181
-37 c-1 -34 -2 -35 -9 -13 -11 36 -11 50 0 50 6 0 10 -17 9 -37z m91 12 c0 -8
3 -20 6 -29 4 -12 0 -16 -15 -16 -12 0 -21 5 -21 11 0 5 5 7 10 4 6 -3 10 1
10 9 0 9 -5 15 -12 14 -6 -2 -13 5 -15 14 -3 12 1 15 16 11 12 -3 21 -11 21
-18z m295 14 c11 -17 2 -18 -25 -4 -24 14 -24 14 -3 15 12 0 25 -5 28 -11z
m115 -10 c0 -57 -63 -85 -76 -34 -10 40 1 55 41 55 29 0 35 -4 35 -21z m73 4
c-13 -8 -23 -24 -23 -34 0 -13 7 -19 23 -19 16 0 18 -3 8 -9 -7 -5 -22 -6 -32
-4 -15 4 -19 15 -19 44 0 37 1 39 33 38 32 0 32 0 10 -16z m394 -1 c-10 -10
-17 -27 -17 -38 0 -15 2 -16 9 -4 6 8 7 18 4 24 -3 5 -1 6 5 2 18 -11 14 -34
-7 -46 -28 -15 -31 -13 -31 19 0 43 10 61 33 61 19 0 19 -1 4 -18z m121 -19
c4 -39 -15 -45 -20 -6 -5 43 -28 41 -28 -3 0 -26 -3 -35 -10 -28 -6 6 -7 25
-4 43 6 27 10 32 33 29 21 -2 27 -9 29 -35z m292 28 c0 -6 -4 -12 -10 -16 -5
-3 -7 -12 -3 -20 6 -17 -12 -21 -22 -5 -10 16 5 50 21 50 8 0 14 -4 14 -9z
m-1453 -13 c-2 -7 0 -24 5 -36 6 -18 5 -23 -4 -20 -17 6 -23 68 -8 68 7 0 10
-6 7 -12z m238 4 c12 -8 14 -62 3 -62 -4 0 -8 11 -8 25 0 16 -6 25 -16 25 -8
0 -12 5 -9 10 7 12 16 12 30 2z m1635 -21 c0 -10 -7 -25 -17 -32 -15 -13 -15
-12 -5 7 6 12 8 24 5 28 -12 12 -43 6 -43 -9 0 -8 -4 -15 -10 -15 -5 0 -10 9
-10 19 0 15 8 21 33 23 40 4 47 1 47 -21z m-545 9 c4 -6 10 -8 15 -5 14 9 23
-16 11 -28 -8 -8 -11 -8 -11 1 0 7 -9 12 -20 12 -11 0 -20 7 -20 15 0 17 16
20 25 5z m394 -10 c-18 -12 -4 -38 23 -43 21 -4 21 -4 -3 -6 -27 -1 -39 14
-39 50 0 13 5 17 16 12 12 -4 13 -8 3 -13z m211 16 c0 -2 -7 -7 -16 -10 -8 -3
-12 -2 -9 4 6 10 25 14 25 6z m30 -6 c0 -5 -2 -10 -4 -10 -3 0 -8 5 -11 10 -3
6 -1 10 4 10 6 0 11 -4 11 -10z m-1520 -10 c13 -8 12 -10 -2 -10 -10 0 -18 -4
-18 -10 0 -5 9 -10 21 -10 11 0 17 -4 14 -10 -8 -13 -42 -13 -50 0 -7 12 3 50
13 50 4 0 14 -5 22 -10z m1710 1 c0 -5 -9 -7 -20 -4 -11 3 -20 7 -20 9 0 2 9
4 20 4 11 0 20 -4 20 -9z m2365 -61 c4 -27 15 -60 25 -73 42 -54 37 -111 -13
-132 -72 -30 -122 38 -83 113 8 15 17 50 21 77 13 89 39 96 50 15z m-2560 29
c-8 -12 -45 -12 -45 0 0 10 30 20 43 14 4 -3 5 -9 2 -14z m288 8 c4 3 7 1 7
-5 0 -7 -9 -12 -20 -12 -12 0 -20 7 -20 16 0 13 3 14 13 5 8 -6 17 -8 20 -4z
m-996 -3 c-3 -3 -12 -4 -19 -1 -8 3 -5 6 6 6 11 1 17 -2 13 -5z m903 -15 c0
-4 -7 -6 -15 -3 -8 4 -15 10 -15 15 0 4 7 6 15 3 8 -4 15 -10 15 -15z m4274
-154 c38 -25 75 -45 82 -45 21 0 70 -47 101 -98 76 -123 103 -171 103 -185 0
-31 -142 -186 -225 -247 -46 -33 -88 -60 -93 -60 -5 0 -15 7 -22 15 -11 13
-10 15 6 9 15 -5 16 -4 4 4 -8 6 -18 8 -23 5 -4 -2 -45 10 -90 28 -93 38 -150
88 -206 182 l-34 57 25 48 c78 148 102 189 121 211 20 21 165 120 177 121 3 0
37 -20 74 -45z"/>
<path d="M4430 9036 c-16 -20 -9 -60 12 -64 9 -2 26 6 38 18 16 16 18 24 10
40 -13 23 -42 26 -60 6z"/>
<path d="M3384 8988 c-23 -35 -53 -84 -68 -109 l-26 -46 63 -94 c70 -105 69
-105 184 -94 l72 7 60 103 59 104 -38 66 c-78 132 -68 125 -174 125 l-92 0
-40 -62z"/>
<path d="M3740 8804 c-5 -11 -27 -49 -49 -84 -23 -35 -41 -69 -41 -77 0 -8 25
-57 56 -109 l55 -94 95 0 c52 0 94 4 94 8 0 4 23 47 50 95 28 48 50 92 50 99
0 6 -17 34 -38 62 -21 28 -47 65 -57 83 -19 32 -19 32 -113 35 -88 3 -95 2
-102 -18z m135 -89 c40 -16 58 -52 49 -93 -11 -45 -33 -62 -80 -62 -40 0 -47
4 -74 42 -33 45 -32 67 3 106 24 26 54 28 102 7z"/>
<path d="M2991 8773 c-12 -27 -36 -69 -53 -96 -19 -29 -28 -55 -25 -68 3 -11
29 -58 59 -105 l53 -84 107 -1 c60 -1 114 -2 121 -3 6 -1 36 34 65 79 89 134
86 124 46 181 -20 27 -47 70 -61 97 l-26 47 -132 0 -131 0 -23 -47z"/>
<path d="M5000 8644 c-52 -31 -143 -85 -202 -120 -58 -34 -187 -107 -285 -160
-188 -102 -384 -215 -468 -269 -27 -17 -167 -98 -310 -180 -269 -153 -406
-232 -682 -394 -90 -53 -236 -138 -325 -190 -491 -285 -671 -398 -660 -415 4
-6 9 -85 12 -176 l5 -165 28 -3 28 -3 -2 167 c-2 193 -10 176 116 241 72 37
239 136 310 183 22 14 72 44 110 65 65 36 91 52 234 143 56 35 148 87 355 198
65 36 166 95 225 133 110 70 247 149 340 196 29 15 120 69 201 121 81 52 151
94 155 94 4 0 34 16 68 37 74 43 341 193 487 273 58 31 128 71 156 88 28 18
54 32 58 32 3 0 32 17 64 38 31 22 65 42 74 45 10 4 71 -26 165 -80 81 -47
186 -107 233 -133 141 -77 271 -150 309 -174 20 -13 97 -56 171 -96 74 -40
160 -90 190 -111 30 -21 129 -80 220 -132 91 -52 224 -130 295 -173 72 -44
175 -104 230 -133 130 -70 143 -78 250 -143 50 -31 133 -79 185 -108 52 -28
122 -69 155 -89 196 -123 351 -215 430 -254 50 -25 108 -58 129 -74 l39 -28 4
-975 c2 -550 7 -988 12 -1005 5 -16 10 -24 10 -17 1 6 8 12 16 12 9 0 18 6 21
13 2 7 23 13 45 14 23 1 43 3 44 5 7 8 14 1850 8 1902 l-8 59 -70 37 c-107 56
-288 160 -483 278 -98 58 -215 127 -262 152 -47 25 -123 68 -170 95 -47 27
-161 93 -255 146 -93 54 -199 115 -235 136 -36 22 -120 72 -188 111 -222 130
-366 214 -462 272 -52 31 -126 74 -165 95 -38 20 -131 72 -205 115 -332 190
-640 360 -653 360 -1 0 -45 -25 -97 -56z"/>
<path d="M3404 8593 c-9 -15 -37 -58 -60 -95 -24 -37 -44 -76 -44 -85 0 -10
24 -56 54 -103 l55 -85 103 -5 c66 -4 106 -2 111 5 4 5 32 52 62 104 l55 94
-49 66 c-27 36 -56 80 -64 97 l-16 30 -95 3 c-94 2 -95 2 -112 -26z"/>
<path d="M2588 8485 l-57 -115 46 -77 c25 -43 50 -84 55 -90 7 -9 47 -13 134
-13 l123 0 25 33 c39 52 87 138 92 166 3 20 -10 48 -56 119 l-61 92 -122 0
-122 -1 -57 -114z"/>
<path d="M4975 8504 c-106 -65 -177 -105 -604 -347 -106 -60 -230 -133 -275
-162 -69 -45 -308 -185 -456 -267 -25 -14 -81 -47 -125 -74 -44 -27 -159 -94
-255 -148 -240 -136 -559 -323 -715 -419 -71 -44 -176 -105 -234 -136 -57 -31
-112 -68 -122 -81 -16 -23 -17 -45 -11 -255 l7 -230 25 3 c13 1 27 7 31 13 4
6 10 91 15 188 8 169 9 173 15 91 6 -74 13 -2136 9 -2510 -2 -110 -4 -129 -12
-100 -7 23 -12 398 -15 1058 l-5 1022 -32 0 -33 0 -5 -352 c-8 -565 0 -1939
12 -1968 12 -29 90 -92 165 -135 110 -62 547 -319 665 -390 47 -29 117 -70
155 -92 133 -77 260 -153 330 -197 97 -61 201 -123 325 -191 58 -32 130 -75
160 -95 30 -20 118 -72 195 -115 169 -95 373 -217 435 -260 79 -56 314 -193
403 -236 l86 -41 108 57 c59 32 140 79 178 105 39 26 86 56 105 65 19 10 67
39 105 65 39 25 115 70 170 99 55 30 143 80 195 113 52 33 156 97 230 141 74
44 158 95 185 112 28 18 85 51 128 74 43 23 131 74 195 114 64 40 131 78 147
86 17 7 64 34 105 60 41 26 127 76 190 111 145 80 316 180 400 234 36 24 97
60 135 81 79 44 247 146 316 193 38 26 48 39 53 69 3 21 6 209 6 417 0 335 -2
381 -16 397 -15 16 -15 20 -1 34 14 13 16 134 19 1083 2 587 -1 1072 -5 1079
-4 6 -36 25 -70 43 -34 17 -93 51 -132 74 -38 23 -115 69 -170 101 -55 32
-138 82 -185 110 -179 109 -260 156 -307 177 -26 11 -82 42 -123 68 -71 45
-321 192 -420 248 -25 14 -91 54 -147 89 -57 35 -160 94 -230 132 -71 37 -211
119 -313 181 -183 111 -234 140 -545 310 -88 48 -186 103 -217 124 -91 58 -97
57 -223 -20z m179 -38 c34 -18 88 -48 120 -66 33 -18 98 -55 145 -83 48 -27
154 -87 236 -133 230 -127 348 -194 433 -249 43 -27 104 -62 135 -78 74 -35
316 -174 342 -196 33 -28 103 -71 219 -133 61 -33 148 -84 193 -114 46 -29
126 -76 179 -104 122 -65 263 -148 289 -169 22 -19 171 -109 225 -136 19 -10
30 -20 23 -22 -14 -5 -222 103 -303 157 -50 33 -108 65 -299 167 -35 19 -76
42 -90 52 -35 25 -203 121 -270 156 -30 15 -84 46 -120 70 -70 46 -146 91
-251 151 -117 67 -378 219 -470 275 -25 14 -90 51 -145 81 -55 31 -140 79
-190 108 -49 29 -126 73 -170 98 -146 81 -270 155 -287 169 -14 13 -18 12 -29
-9 -7 -13 -13 -26 -12 -29 1 -3 -3 -6 -10 -6 -7 0 -50 -24 -97 -53 -96 -60
-330 -200 -334 -200 -4 0 -184 -102 -256 -145 -30 -18 -116 -69 -190 -113 -74
-44 -180 -107 -235 -141 -55 -33 -129 -77 -165 -97 -36 -20 -129 -75 -207
-121 -79 -46 -254 -146 -390 -222 -137 -75 -313 -178 -393 -228 -80 -50 -172
-105 -205 -123 -33 -18 -87 -50 -121 -71 -77 -49 -170 -90 -211 -94 -50 -5
-40 9 30 40 34 16 94 49 132 75 39 26 122 78 185 115 216 128 362 216 432 261
39 25 82 50 96 55 31 12 372 209 667 385 66 39 163 95 215 124 52 29 114 66
137 82 53 36 214 127 368 208 116 61 199 108 353 201 174 106 227 137 231 138
2 1 32 -14 65 -33z m-10 -146 c31 -16 82 -44 113 -61 32 -16 67 -38 78 -48 24
-21 148 -95 190 -113 17 -7 44 -22 60 -34 17 -12 50 -32 75 -45 25 -13 87 -52
137 -87 51 -34 97 -62 102 -62 5 0 31 -15 58 -34 27 -19 74 -46 104 -61 30
-15 56 -30 59 -34 3 -3 21 -15 40 -25 19 -10 49 -31 65 -46 17 -15 46 -36 65
-45 42 -22 148 -93 175 -118 12 -11 43 -29 70 -41 63 -27 185 -105 185 -118 0
-5 14 -14 30 -19 17 -6 30 -14 30 -19 0 -4 14 -13 30 -20 17 -7 30 -16 30 -21
0 -4 16 -13 35 -20 19 -7 35 -17 35 -21 0 -4 8 -8 18 -8 10 0 27 -8 38 -19 24
-22 58 -41 82 -46 15 -3 104 -57 242 -149 24 -16 82 -48 129 -72 47 -24 140
-78 206 -119 66 -41 127 -79 135 -84 13 -8 15 -174 18 -1372 2 -1292 2 -1363
-15 -1382 -10 -10 -54 -40 -98 -67 -81 -47 -189 -113 -300 -180 -144 -88 -284
-170 -330 -194 -27 -15 -108 -63 -180 -107 -71 -45 -186 -112 -255 -151 -68
-38 -143 -83 -167 -99 -23 -16 -95 -59 -160 -96 -214 -120 -246 -139 -438
-250 -104 -61 -216 -126 -248 -144 -32 -19 -110 -65 -175 -103 -64 -38 -146
-82 -181 -98 -35 -16 -82 -41 -104 -55 -35 -22 -43 -24 -61 -12 -12 7 -48 27
-81 44 -80 41 -281 159 -550 320 -121 73 -267 159 -325 192 -58 33 -150 87
-205 120 -184 112 -457 275 -735 438 -151 89 -327 195 -390 235 -63 40 -158
99 -211 131 -145 89 -136 70 -128 289 8 191 -2 1102 -22 1998 -8 384 -8 520 0
540 7 15 35 43 64 62 29 19 54 37 57 41 27 32 138 108 199 137 42 19 98 51
124 70 27 18 70 45 95 59 26 15 70 43 97 63 28 21 82 55 120 76 39 21 72 41
75 44 3 3 39 22 80 42 120 57 238 134 297 194 31 31 65 57 77 58 11 2 37 12
56 24 19 12 40 22 46 22 7 0 19 10 27 23 8 13 37 32 64 42 26 10 52 22 58 26
5 5 17 9 27 9 10 0 18 4 18 10 0 5 11 12 25 16 14 3 22 10 19 15 -3 5 15 18
39 29 24 11 50 26 56 34 7 8 18 13 25 10 7 -3 29 7 50 21 20 14 41 25 47 25 6
0 7 5 4 10 -4 6 5 10 20 10 33 0 62 16 126 70 20 16 42 30 49 30 6 0 31 13 54
30 24 16 55 31 68 34 24 4 60 21 133 64 47 26 91 64 109 93 9 15 33 31 56 38
22 6 40 16 40 21 0 6 8 10 17 10 15 0 87 29 123 50 22 13 22 13 84 -20z m2650
-1391 c25 -16 83 -48 128 -70 46 -22 70 -37 53 -34 -49 10 -220 100 -217 114
2 9 -3 11 -13 8 -8 -4 -15 -2 -15 3 0 17 17 11 64 -21z m196 -1449 c2 -470 2
-1022 1 -1226 l-1 -372 -107 -69 c-60 -38 -151 -96 -203 -128 -52 -32 -129
-79 -170 -105 -79 -49 -148 -90 -345 -200 -66 -37 -163 -95 -215 -128 -52 -33
-144 -86 -205 -117 -60 -32 -135 -75 -165 -95 -30 -21 -80 -50 -110 -65 -30
-15 -89 -49 -130 -75 -41 -26 -131 -79 -200 -118 -69 -39 -196 -112 -282 -164
-644 -382 -726 -428 -759 -428 -34 0 -301 151 -346 195 -7 8 -23 17 -35 21
-12 3 -51 24 -86 46 -36 22 -75 43 -87 48 -12 5 -76 42 -141 83 -66 41 -175
107 -244 146 -69 40 -152 88 -185 108 -33 20 -89 53 -125 73 -36 21 -161 94
-278 164 -117 69 -215 126 -218 126 -2 0 -23 12 -47 27 -96 61 -470 284 -509
304 -24 12 -79 45 -123 74 -44 28 -134 84 -200 123 -107 63 -226 150 -168 122
12 -5 25 -15 28 -20 4 -6 10 -8 15 -5 5 3 46 -19 92 -48 84 -55 131 -83 378
-229 74 -44 199 -119 278 -166 79 -48 182 -110 230 -139 48 -29 112 -68 142
-87 30 -18 75 -44 100 -56 25 -13 59 -33 75 -45 17 -13 102 -63 190 -113 88
-49 199 -114 247 -143 48 -30 131 -79 184 -109 54 -30 120 -70 148 -88 41 -28
251 -152 331 -197 11 -6 58 -36 105 -67 114 -75 216 -128 246 -128 14 0 71 25
127 56 134 73 141 77 276 158 64 38 197 117 296 176 99 58 203 120 230 137 28
17 108 64 178 104 70 41 210 124 310 185 100 61 233 137 295 169 61 32 112 61
112 64 0 6 39 30 175 108 44 25 102 60 129 77 27 17 87 51 132 76 157 85 309
173 339 194 17 12 75 50 131 84 55 34 109 71 120 83 18 21 19 44 15 793 -3
825 9 1904 20 1751 3 -49 8 -475 9 -945z"/>
<path d="M5035 8065 c-33 -24 -65 -44 -72 -45 -7 0 -99 -52 -205 -115 -106
-63 -196 -115 -199 -115 -4 0 -9 -6 -12 -14 -3 -8 -29 -22 -57 -31 -28 -9 -54
-23 -56 -29 -3 -7 -10 -13 -17 -13 -15 0 -267 -145 -392 -225 -49 -32 -95 -58
-102 -58 -7 0 -13 -4 -13 -8 0 -8 -83 -56 -245 -142 -44 -24 -107 -61 -140
-84 -33 -22 -89 -55 -125 -74 -35 -18 -67 -36 -70 -40 -3 -4 -30 -20 -60 -36
-78 -41 -132 -71 -177 -99 -21 -13 -83 -48 -138 -77 -107 -57 -157 -87 -277
-165 l-77 -50 0 -1297 -1 -1296 178 -108 c97 -59 215 -128 262 -154 47 -26
146 -84 220 -130 74 -45 176 -103 225 -128 50 -25 93 -51 98 -58 4 -7 35 -28
70 -47 90 -49 297 -171 342 -201 21 -14 41 -26 46 -26 10 0 192 -108 309 -183
47 -30 130 -81 185 -112 55 -31 134 -79 175 -105 95 -60 299 -180 307 -180 3
0 21 -8 40 -17 28 -13 39 -14 52 -5 9 6 42 25 74 42 32 16 71 39 87 50 24 17
217 123 305 168 17 8 48 27 70 42 54 36 271 167 430 258 72 41 148 90 170 109
50 42 56 47 75 56 8 4 31 17 50 28 71 43 191 108 212 115 26 8 135 68 283 157
203 122 424 246 574 323 139 71 156 83 163 111 14 52 23 684 18 1183 -3 261
-3 686 0 943 l5 469 -31 13 c-17 7 -75 41 -130 75 -54 35 -114 69 -132 77 -17
7 -57 29 -87 48 -30 19 -56 35 -58 35 -3 0 -34 18 -70 39 -35 22 -80 47 -98
55 -19 9 -72 39 -119 67 -162 98 -644 372 -662 377 -10 2 -18 8 -18 13 0 5 -7
9 -15 9 -8 0 -35 16 -60 35 -25 19 -94 60 -153 91 -145 77 -346 190 -408 230
-29 18 -87 52 -130 75 -44 24 -102 58 -131 76 -29 18 -55 33 -58 33 -3 0 -33
18 -65 40 -32 22 -62 40 -66 40 -4 0 -15 6 -23 14 -14 13 -23 9 -76 -29z m398
-462 c127 -190 96 -174 335 -171 199 3 201 3 211 -19 6 -12 53 -87 106 -167
111 -169 67 -151 345 -146 l175 2 23 -48 c31 -64 138 -231 170 -266 l26 -28
208 0 208 0 12 -27 c33 -79 166 -287 195 -307 42 -27 42 -44 1 -48 -28 -3 -40
-13 -81 -73 -26 -38 -61 -94 -77 -123 l-29 -53 19 -42 c11 -24 24 -77 31 -118
9 -60 19 -86 55 -141 47 -70 105 -128 129 -128 18 0 20 -26 3 -36 -7 -4 -28
-10 -48 -14 -31 -5 -40 -14 -87 -93 -29 -48 -68 -117 -87 -153 l-36 -66 27
-47 c74 -128 162 -247 197 -265 20 -11 36 -25 36 -31 0 -7 -17 -20 -39 -29
-31 -15 -54 -42 -125 -147 -89 -134 -102 -163 -92 -202 9 -36 161 -262 190
-283 15 -10 39 -28 53 -40 l26 -21 -44 -11 c-25 -6 -54 -22 -66 -34 -34 -37
-125 -189 -148 -248 l-21 -55 -200 3 c-150 2 -205 0 -222 -10 -28 -15 -188
-284 -203 -340 l-10 -38 -212 6 -212 6 -89 -146 c-49 -81 -94 -166 -101 -189
l-12 -41 -212 3 -212 3 -18 -24 c-77 -98 -174 -255 -184 -298 l-12 -50 -185 1
c-102 1 -202 -2 -223 -6 -36 -7 -38 -6 -53 31 -9 22 -40 77 -71 124 -30 47
-73 114 -96 150 l-42 65 -170 0 c-93 0 -188 -3 -211 -7 l-41 -8 -13 43 c-7 23
-47 96 -90 163 -43 66 -87 137 -97 158 l-18 39 -190 -6 c-104 -2 -198 -8 -207
-12 -12 -5 -18 -3 -18 5 0 20 -52 117 -115 215 -32 50 -67 105 -79 123 l-21
33 -207 -3 -207 -3 -5 30 c-3 17 -37 78 -75 137 -101 158 -116 176 -156 184
-45 8 -45 31 1 40 20 4 41 16 48 28 80 128 166 285 166 301 0 20 -113 227
-160 295 -19 27 -31 34 -51 32 -27 -3 -55 20 -44 38 3 5 17 10 31 10 13 0 32
9 42 20 30 35 182 293 182 310 0 9 -16 43 -36 76 -20 32 -58 96 -85 141 -55
91 -62 98 -101 94 -19 -2 -30 4 -38 19 -17 31 -6 48 32 52 25 2 38 11 53 36
11 18 41 62 66 98 41 57 47 72 52 133 3 38 12 84 20 103 14 34 14 36 -42 138
-72 132 -97 160 -146 160 -29 0 -36 4 -33 17 2 9 17 21 33 26 17 5 38 17 48
25 24 21 132 173 165 232 26 47 28 48 87 55 33 3 128 9 210 11 l150 5 112 166
111 167 49 1 c26 1 119 5 206 10 l158 8 39 49 c22 28 68 98 102 157 l63 107
70 -1 c38 0 133 1 211 3 l140 2 66 98 c37 53 83 129 104 167 l37 70 208 -3
c169 -3 212 -1 235 11 28 15 29 15 35 -14 4 -16 45 -86 92 -156z"/>
<path d="M5098 7700 l-187 -5 -90 -137 c-50 -76 -91 -144 -91 -153 0 -17 92
-179 151 -266 l39 -59 178 5 177 5 33 43 c83 107 172 249 172 275 0 8 -188
297 -193 297 -1 0 -86 -2 -189 -5z"/>
<path d="M4247 7327 c-12 -22 -55 -90 -94 -150 -40 -61 -73 -115 -73 -121 1
-6 17 -33 36 -61 20 -27 64 -94 100 -147 l64 -98 155 -2 c85 -1 171 -2 191 -2
36 -1 38 1 90 94 29 52 57 101 64 107 8 10 0 24 -32 59 -23 25 -54 54 -70 65
l-28 20 -33 -25 c-41 -31 -66 -33 -96 -5 -71 67 -46 174 44 186 39 5 46 1 145
-77 58 -46 123 -99 144 -119 21 -20 35 -29 31 -21 -23 41 -177 269 -202 299
l-29 34 -192 2 -193 2 -22 -40z"/>
<path d="M5536 7340 c-12 -14 -58 -74 -102 -134 -43 -61 -97 -130 -120 -154
l-41 -45 -172 -5 c-124 -3 -174 -8 -177 -17 -7 -18 35 -102 61 -123 59 -47 50
-92 -41 -193 l-66 -74 5 -50 c3 -27 9 -62 13 -77 5 -21 1 -32 -21 -52 -16 -15
-35 -26 -45 -26 -24 0 -55 37 -81 94 -35 81 -11 178 70 280 35 44 38 67 14
122 -13 30 -18 34 -21 20 -2 -10 -26 -52 -53 -94 -57 -86 -66 -115 -50 -146 7
-12 11 -44 9 -72 l-3 -49 -35 60 -36 60 -183 0 -184 0 -51 -83 c-28 -46 -73
-114 -100 -153 -26 -38 -49 -76 -50 -85 0 -10 14 -22 39 -32 60 -24 311 -159
388 -209 38 -24 90 -64 116 -88 45 -42 50 -51 66 -129 13 -60 15 -88 7 -102
-25 -46 -424 -274 -547 -314 -22 -7 -53 -20 -70 -30 -57 -34 -257 -80 -349
-80 -27 0 -93 7 -147 16 -94 15 -99 14 -117 -4 -10 -10 -22 -32 -25 -48 -6
-31 9 -68 23 -59 10 6 95 -103 149 -193 l33 -52 117 0 c65 0 152 3 193 6 l74
7 57 91 c31 50 80 123 109 161 l53 70 93 3 92 3 0 -25 c0 -14 -3 -27 -7 -29
-5 -3 -39 -2 -78 3 -84 9 -72 20 -186 -174 l-82 -138 21 -43 c11 -23 53 -92
93 -153 l73 -112 96 3 c65 1 102 -2 119 -12 31 -17 12 -30 -44 -32 -74 -1 -86
-18 -13 -18 57 -1 69 -4 82 -23 14 -20 14 -23 -1 -32 -9 -5 -64 -6 -127 -3
l-111 7 -24 -38 c-83 -126 -161 -254 -161 -265 0 -7 17 -37 38 -67 20 -30 60
-92 87 -138 l51 -83 209 -2 210 -2 82 125 c81 124 82 125 93 96 14 -38 9 -51
-67 -179 -42 -71 -63 -116 -60 -129 3 -10 44 -81 91 -156 l86 -137 100 9 c61
6 139 6 200 0 l100 -9 62 100 c34 55 75 118 90 139 15 21 28 49 28 61 0 12
-23 58 -52 101 -28 44 -59 96 -68 117 -16 36 -16 87 0 87 4 0 45 -52 91 -114
l84 -115 207 0 208 -1 27 43 c70 111 136 234 136 257 0 15 -36 80 -90 162
l-91 138 -112 4 c-62 2 -117 9 -123 15 -17 17 48 38 148 47 l90 8 -105 7
c-119 7 -110 6 -110 19 0 6 45 10 114 10 l114 0 25 34 c15 19 56 88 92 155
l66 121 -75 117 c-41 65 -82 134 -91 154 l-17 36 -96 5 c-77 4 -98 9 -109 24
-7 10 -13 21 -13 25 0 4 55 5 123 2 l123 -6 12 27 c6 15 12 38 12 51 0 23 18
33 33 19 3 -4 -5 -29 -19 -56 -14 -28 -23 -57 -19 -67 3 -9 50 -82 103 -163
l97 -148 180 0 181 0 18 31 c35 60 178 230 190 226 16 -6 13 -15 -51 -124 -31
-54 -65 -113 -74 -131 l-18 -34 41 -66 c22 -37 66 -105 96 -150 l56 -84 184 5
185 6 61 98 c34 54 74 116 89 137 15 21 27 48 27 59 0 11 -35 77 -78 146 -44
69 -84 135 -90 146 -9 17 -22 20 -94 23 -102 3 -138 10 -138 26 0 14 70 26
157 26 51 0 53 1 84 46 69 100 159 258 159 278 0 11 -14 53 -32 91 l-31 71
-39 -77 c-21 -43 -52 -92 -68 -109 -17 -18 -30 -37 -30 -43 0 -6 -3 -8 -6 -4
-3 3 -25 -9 -48 -26 -23 -18 -53 -40 -66 -50 -14 -10 -2 -6 25 8 44 23 47 24
25 5 -26 -23 -160 -94 -160 -85 0 2 18 14 40 25 22 11 40 23 40 25 0 3 -35
-12 -77 -34 -43 -21 -96 -44 -118 -52 -23 -7 -33 -14 -24 -17 11 -2 15 -10 12
-23 -6 -23 -30 -25 -54 -3 -15 14 -24 14 -93 0 -97 -21 -299 -21 -386 -1 -58
14 -132 40 -295 107 -123 50 -391 224 -496 323 -19 18 -33 9 -82 -56 -58 -77
-71 -100 -56 -95 63 20 79 16 125 -26 89 -82 164 -207 209 -348 22 -72 27
-103 27 -200 0 -127 -2 -134 -80 -305 -100 -218 -140 -272 -333 -451 -53 -49
-76 -80 -113 -154 -25 -50 -46 -99 -46 -107 0 -8 -5 -24 -11 -35 -11 -20 -13
-17 -34 34 -40 99 -107 201 -169 258 -236 218 -290 287 -374 485 -63 148 -71
184 -72 307 0 82 5 113 31 195 32 101 55 146 123 247 46 68 89 99 126 90 49
-11 90 -36 90 -55 0 -10 -23 -44 -51 -76 -28 -32 -60 -75 -70 -95 l-19 -38 22
-1 c54 -2 743 3 746 6 8 7 -41 87 -88 146 -29 35 -55 70 -59 76 -5 10 -24 11
-81 3 -41 -5 -122 -9 -180 -10 -129 0 -149 10 -256 130 -75 84 -91 116 -109
221 -11 60 22 153 87 250 82 123 106 134 293 134 117 0 146 -3 178 -19 57 -28
129 -98 177 -170 34 -54 44 -80 55 -148 10 -64 13 -73 14 -40 0 23 6 42 12 42
6 0 72 39 146 86 128 82 183 110 385 199 l87 39 -25 45 c-13 25 -58 98 -100
161 -55 84 -82 117 -101 122 -26 7 -342 13 -348 6 -1 -1 -17 -28 -36 -58 -41
-70 -38 -67 -49 -50 -14 22 -11 71 5 100 29 51 12 120 -48 194 -46 57 -47 59
-30 81 15 19 15 19 9 -8 -4 -18 -2 -33 8 -42 18 -18 30 -20 20 -2 -9 16 1 5
65 -70 l53 -63 187 0 c171 0 189 2 205 19 27 29 176 275 176 289 0 21 -34 79
-112 196 l-74 109 -187 1 -188 1 -23 -25z m124 -105 c16 -8 35 -25 41 -37 15
-27 14 -95 -2 -114 -6 -8 -8 -14 -4 -14 5 0 0 -9 -10 -20 -10 -11 -23 -20 -28
-20 -6 0 -2 10 9 21 19 22 19 22 -3 10 -32 -16 -60 -14 -92 10 -37 27 -50 20
-136 -73 -82 -89 -94 -112 -96 -177 -2 -43 2 -56 24 -79 42 -44 81 -132 81
-182 0 -44 -26 -115 -56 -154 -18 -22 -69 -17 -106 12 l-24 18 21 35 c25 40
28 122 7 172 -8 21 -40 53 -84 85 -38 29 -72 58 -75 65 -8 20 18 47 45 47 18
0 29 9 41 35 38 79 121 178 218 255 54 44 101 85 104 91 18 29 82 36 125 14z
m325 -366 c-9 -17 -19 -29 -22 -26 -5 5 25 57 33 57 3 0 -3 -14 -11 -31z
m-477 -765 c39 -61 42 -80 6 -39 -24 28 -74 116 -74 131 0 9 30 -31 68 -92z
m-1218 -594 c-8 -5 -19 -10 -25 -10 -5 0 -3 5 5 10 8 5 20 10 25 10 6 0 3 -5
-5 -10z m-79 -55 c1 -8 2 -21 3 -27 1 -7 -3 -18 -9 -24 -7 -8 -15 -3 -28 18
-9 16 -15 33 -12 39 10 15 45 10 46 -6z m-218 -71 c-39 -13 -96 -25 -125 -28
-49 -5 -50 -5 -13 4 22 5 72 18 110 29 97 27 115 24 28 -5z m-280 -41 c-7 -2
-21 -2 -30 0 -10 3 -4 5 12 5 17 0 24 -2 18 -5z m64 1 c-3 -3 -12 -4 -19 -1
-8 3 -5 6 6 6 11 1 17 -2 13 -5z"/>
<path d="M3555 6896 c-55 -81 -101 -155 -103 -162 -2 -8 37 -77 87 -154 50
-76 91 -143 91 -149 0 -14 126 -23 270 -19 l125 3 63 95 c102 152 122 190 112
215 -5 13 -46 79 -92 147 -46 69 -88 134 -94 144 -10 17 -28 19 -185 24 l-174
5 -100 -149z"/>
<path d="M6182 7009 c-9 -18 -40 -66 -69 -108 -28 -42 -68 -102 -88 -133 l-35
-57 49 -83 c27 -46 70 -112 95 -148 l45 -64 83 3 c46 1 126 7 178 11 52 5 105
10 117 10 16 0 30 14 50 48 15 26 51 85 80 131 29 47 53 96 53 109 0 26 -23
67 -120 217 l-58 90 -181 3 -182 2 -17 -31z"/>
<path d="M2976 6641 c-16 -25 -51 -85 -78 -133 l-49 -86 17 -34 c9 -18 39 -72
66 -120 l49 -88 52 54 c60 62 174 138 232 156 22 6 85 16 140 21 129 11 135
12 135 19 0 7 -57 105 -109 187 l-45 70 -190 0 -191 0 -29 -46z"/>
<path d="M6796 6668 c-8 -13 -44 -72 -81 -133 l-67 -110 104 -13 c194 -24 307
-70 407 -167 l68 -65 12 27 c7 16 37 67 68 115 l55 88 -79 140 -78 139 -197 1
c-194 0 -198 0 -212 -22z"/>
<path d="M6450 6280 c-125 -21 -243 -52 -306 -81 -35 -17 -56 -38 -96 -97
l-51 -76 19 -32 c10 -18 54 -85 97 -150 l79 -116 45 6 c25 3 112 6 192 6 l147
0 50 88 c28 48 66 110 84 139 l32 52 -24 43 c-42 75 -143 227 -153 231 -5 2
-57 -4 -115 -13z"/>
<path d="M3372 6270 c-40 -11 -101 -34 -135 -52 -61 -33 -157 -117 -157 -138
0 -6 4 -9 8 -6 5 3 71 1 148 -4 l139 -9 32 36 c27 32 113 174 113 188 0 11
-79 3 -148 -15z"/>
<path d="M3530 6160 c-60 -86 -89 -136 -86 -148 5 -15 97 -162 159 -253 l24
-35 69 7 c38 5 126 8 196 8 l127 1 77 118 c105 161 105 158 42 248 -50 71 -55
75 -127 103 -42 16 -92 33 -111 39 -38 12 -225 42 -258 42 -14 0 -45 -36 -112
-130z"/>
<path d="M6696 6271 c-4 -6 -12 -9 -17 -6 -5 4 -9 0 -9 -7 1 -21 34 -83 42
-78 4 3 25 -23 47 -58 l41 -63 165 3 c91 1 165 5 165 8 0 3 -14 22 -30 42 -40
49 -140 116 -209 140 -70 24 -185 35 -195 19z"/>
<path d="M4960 6223 c-23 -6 -110 -121 -138 -181 -33 -73 -22 -105 80 -239 55
-72 94 -83 246 -67 51 6 67 12 95 39 43 42 107 164 107 204 0 35 -49 140 -87
186 -45 54 -77 65 -188 64 -55 -1 -107 -3 -115 -6z"/>
<path d="M4226 6091 c27 -21 54 -36 61 -34 7 3 10 9 7 14 -5 9 -101 59 -112
59 -2 0 17 -17 44 -39z"/>
<path d="M5960 6109 c-8 -5 -51 -29 -95 -54 -89 -50 -89 -52 7 -27 57 15 70
22 92 55 25 37 24 44 -4 26z"/>
<path d="M4317 6039 c7 -7 15 -10 18 -7 3 3 -2 9 -12 12 -14 6 -15 5 -6 -5z"/>
<path d="M3093 6021 c3 -11 1 -19 -4 -15 -5 3 -9 -2 -9 -11 0 -11 -5 -15 -14
-12 -40 16 -16 -113 37 -196 46 -72 122 -137 214 -184 107 -56 149 -68 169
-52 21 17 74 110 74 129 0 12 -107 186 -162 264 -12 16 -26 19 -108 17 -172
-2 -224 27 -63 35 54 3 107 7 118 11 19 6 19 6 -1 14 -12 4 -74 11 -139 15
-117 7 -118 7 -112 -15z"/>
<path d="M6970 6025 c-36 -7 -53 -13 -37 -14 15 -1 27 -5 27 -11 0 -6 -31 -10
-72 -10 -40 0 -78 -4 -84 -8 -25 -16 -174 -277 -174 -303 0 -20 83 -139 97
-139 6 0 62 25 123 56 87 43 129 72 187 127 122 116 171 248 103 281 -8 4 -26
13 -40 21 -29 17 -41 17 -130 0z"/>
<path d="M4249 5977 c-9 -12 -55 -80 -103 -151 l-87 -130 23 -43 c18 -34 27
-43 43 -39 38 10 250 128 364 204 106 70 113 76 95 90 -37 28 -120 61 -192 77
-98 20 -124 19 -143 -8z"/>
<path d="M5809 5964 c-118 -13 -220 -41 -219 -61 2 -25 291 -211 418 -269 41
-19 76 -34 77 -34 2 0 15 20 28 45 l26 45 -64 102 c-74 122 -116 181 -130 184
-5 1 -67 -5 -136 -12z"/>
<path d="M2900 5849 c0 -9 -13 -41 -30 -72 -16 -31 -30 -69 -30 -84 0 -16 21
-59 45 -98 24 -38 63 -100 85 -137 23 -37 48 -72 55 -78 8 -6 58 -14 112 -16
54 -3 109 -7 122 -10 l24 -5 -24 -17 c-18 -13 -53 -18 -133 -22 l-110 -5 -78
-130 c-115 -193 -113 -159 -16 -326 l84 -144 198 -5 199 -5 27 40 c15 22 55
88 89 147 l61 107 -85 158 c-47 87 -85 160 -85 164 0 3 -16 11 -35 19 -43 17
-45 28 -3 32 63 6 42 32 -74 94 -155 82 -198 110 -269 179 -59 57 -109 140
-109 183 0 9 -5 24 -10 32 -8 13 -10 13 -10 -1z"/>
<path d="M3604 5589 c-19 -26 -40 -50 -47 -52 -24 -8 -1 -15 88 -26 100 -11
174 -5 304 28 46 12 86 21 88 21 3 0 -7 14 -21 31 -14 17 -26 35 -26 40 0 7
-65 10 -175 8 l-176 -2 -35 -48z"/>
<path d="M6175 5604 l-25 -33 82 -27 c69 -22 107 -27 225 -32 78 -2 150 -2
159 2 16 6 15 8 -3 29 -12 12 -30 36 -40 54 l-19 32 -177 4 -176 5 -26 -34z"/>
<path d="M4590 5163 c0 -81 15 -182 30 -197 14 -14 853 -19 897 -5 26 8 34 17
40 47 8 42 9 209 0 218 -3 3 -97 1 -210 -5 -113 -6 -229 -9 -259 -6 -29 2
-153 7 -275 10 l-223 6 0 -68z"/>
<path d="M3821 4950 l-185 -5 -51 -85 c-28 -47 -70 -113 -93 -148 -23 -35 -42
-68 -42 -73 0 -11 128 -215 165 -262 l22 -29 194 2 c169 1 196 3 211 18 24 24
148 232 155 260 4 16 -4 38 -24 70 -17 26 -55 88 -86 137 -31 50 -62 97 -69
105 -11 13 -42 14 -197 10z"/>
<path d="M6153 4889 c-21 -34 -64 -101 -95 -149 -32 -49 -58 -96 -58 -104 0
-19 117 -207 157 -253 l28 -32 195 -3 194 -2 39 60 c20 32 61 97 89 143 60 98
61 88 -43 237 -35 49 -73 107 -84 127 l-20 37 -182 0 -183 0 -37 -61z"/>
<path d="M4720 4774 c0 -21 63 -115 109 -166 78 -85 100 -93 261 -89 88 2 143
8 160 16 49 26 225 228 208 239 -1 1 -77 -2 -168 -6 -157 -8 -528 -2 -557 9
-7 3 -13 1 -13 -3z"/>
<path d="M6918 4643 c29 -2 74 -2 100 0 26 2 2 3 -53 3 -55 0 -76 -1 -47 -3z"/>
<path d="M3359 4595 c-3 -2 -80 -5 -171 -5 -127 -1 -170 -5 -178 -15 -16 -20
-170 -277 -170 -284 1 -3 25 -44 55 -91 30 -47 71 -113 91 -147 45 -74 41 -73
258 -73 l161 0 33 50 c17 27 32 53 32 57 0 3 7 14 15 22 8 9 32 49 54 90 l40
73 -25 51 c-32 64 -173 277 -183 277 -4 0 -10 -2 -12 -5z"/>
<path d="M6777 4523 c-84 -133 -147 -241 -147 -254 0 -18 124 -227 152 -256
21 -22 27 -23 213 -23 l191 0 23 48 c34 70 132 222 143 222 20 0 -4 53 -69
158 -37 59 -74 120 -83 135 l-17 29 -181 5 -181 5 -44 -69z"/>
<path d="M3753 4283 c48 -2 126 -2 175 0 48 1 8 3 -88 3 -96 0 -136 -2 -87 -3z"/>
<path d="M6292 4283 c48 -2 129 -2 180 0 51 1 12 3 -87 3 -99 0 -141 -2 -93
-3z"/>
<path d="M3595 4142 c-27 -42 -69 -108 -93 -145 l-42 -68 86 -132 c127 -196
95 -177 308 -177 l181 0 24 38 c76 117 141 233 141 251 0 12 -28 66 -61 119
-34 53 -75 118 -92 144 l-30 48 -186 -1 -186 -1 -50 -76z"/>
<path d="M6180 4205 c-21 -26 -180 -287 -180 -295 0 -15 60 -120 118 -207 l55
-83 166 0 c91 0 176 -3 188 -6 19 -5 26 2 52 53 16 33 57 103 90 157 34 53 61
103 61 110 0 8 -29 57 -64 109 -36 53 -74 114 -86 134 l-21 38 -185 0 c-112 0
-189 -4 -194 -10z"/>
<path d="M4275 3930 c4 -6 80 -10 198 -9 112 1 182 4 167 9 -38 12 -372 12
-365 0z"/>
<path d="M5653 3923 c53 -2 141 -2 195 0 53 1 9 3 -98 3 -107 0 -151 -2 -97
-3z"/>
<path d="M4243 3818 c-76 -121 -153 -248 -153 -253 0 -3 46 -76 103 -163 l103
-157 187 3 188 3 43 67 c24 37 62 103 86 146 50 92 55 75 -63 257 l-82 126
-110 7 c-60 3 -147 6 -192 6 l-83 0 -27 -42z"/>
<path d="M5535 3835 c-7 -11 -49 -78 -95 -149 -69 -110 -81 -134 -76 -160 3
-17 42 -85 86 -151 l79 -120 192 -5 192 -5 23 30 c39 51 164 275 164 293 0 9
-24 53 -53 97 -30 44 -67 103 -83 132 l-29 52 -194 3 c-185 3 -194 2 -206 -17z"/>
<path d="M4920 3550 c8 -5 94 -9 195 -9 123 1 167 4 140 10 -58 12 -354 11
-335 -1z"/>
<path d="M4817 3346 c-48 -81 -87 -153 -87 -160 0 -7 7 -19 15 -26 8 -6 34
-46 59 -88 24 -43 62 -101 83 -131 l38 -54 178 -3 177 -3 22 42 c11 23 38 67
58 97 109 159 112 166 96 197 -8 15 -35 55 -60 88 -25 33 -60 86 -76 118 l-31
57 -133 0 c-73 0 -160 3 -192 6 l-60 6 -87 -146z"/>
<path d="M3030 8392 c0 -4 -25 -50 -56 -102 -32 -55 -53 -102 -51 -112 10 -37
113 -186 132 -192 11 -3 61 -6 110 -6 l90 1 63 103 c34 57 62 113 62 123 0 11
-25 59 -56 107 l-56 86 -119 0 c-65 0 -119 -4 -119 -8z"/>
<path d="M3379 8158 c-12 -24 -40 -69 -61 -101 l-40 -59 36 -56 c20 -32 48
-80 63 -108 l26 -52 101 53 c87 45 190 103 234 133 11 7 4 25 -31 80 -25 38
-55 88 -66 111 l-21 41 -110 0 -110 0 -21 -42z"/>
<path d="M2595 8070 c-30 -60 -55 -117 -55 -127 0 -9 24 -55 53 -101 l52 -84
125 6 c145 7 140 3 211 139 l40 77 -62 100 -62 100 -124 0 -123 0 -55 -110z"/>
<path d="M2976 7865 l-58 -111 54 -102 54 -101 60 40 c32 23 86 55 119 71 33
17 87 49 120 71 33 23 61 42 63 43 7 4 -30 67 -75 129 l-46 64 -46 -5 c-25 -3
-78 -2 -117 3 l-70 9 -58 -111z"/>
<path d="M2598 7640 c-32 -60 -58 -119 -58 -131 0 -23 36 -91 78 -147 l25 -32
31 20 c17 11 74 45 126 76 170 99 200 119 200 134 0 8 -23 54 -51 103 l-52 87
-121 0 -121 0 -57 -110z"/>
<path d="M2003 6903 c-22 -15 -23 -21 -23 -164 l0 -149 24 0 c16 0 27 7 31 21
8 23 3 309 -5 308 -3 0 -15 -7 -27 -16z"/>
<path d="M2084 6505 c-4 -8 -3 -35 0 -60 6 -36 11 -45 27 -45 17 0 19 7 19 60
0 54 -2 60 -20 60 -11 0 -23 -7 -26 -15z"/>
<path d="M1770 6485 c7 -8 10 -21 7 -29 -7 -18 21 -26 96 -26 l57 0 0 35 0 35
-86 0 c-75 0 -85 -2 -74 -15z"/>
<path d="M1970 6478 c0 -42 12 -68 30 -68 18 0 30 26 30 68 0 18 -6 22 -30 22
-24 0 -30 -4 -30 -22z"/>
<path d="M1818 6403 c6 -2 18 -2 25 0 6 3 1 5 -13 5 -14 0 -19 -2 -12 -5z"/>
<path d="M2215 6331 c-29 -6 -30 -9 -33 -65 -4 -80 0 -88 38 -75 30 11 30 12
30 80 0 38 -1 68 -2 68 -2 -1 -16 -4 -33 -8z"/>
<path d="M2084 6306 c-3 -7 -4 -31 -2 -52 2 -31 7 -39 23 -39 16 0 21 8 23 42
3 34 -1 44 -18 53 -16 8 -21 8 -26 -4z"/>
<path d="M1994 6292 c-6 -4 -15 -22 -19 -40 -7 -33 -7 -33 27 -30 26 2 34 8
36 26 2 13 -2 30 -8 38 -14 16 -20 17 -36 6z"/>
<path d="M1745 6223 c-3 -10 12 -13 58 -12 64 1 133 15 92 19 -77 7 -145 4
-150 -7z"/>
<path d="M1970 6065 l0 -65 35 0 35 0 0 65 0 65 -35 0 -35 0 0 -65z"/>
<path d="M8107 4858 c-10 -36 -8 -126 3 -133 9 -5 129 10 136 18 2 2 7 25 10
50 l7 47 -41 0 c-44 0 -93 15 -103 31 -3 6 -9 0 -12 -13z"/>
<path d="M5690 8921 c0 -20 30 -33 50 -21 20 13 3 40 -25 40 -18 0 -25 -5 -25
-19z"/>
<path d="M7779 8675 c-1 -3 -2 -8 -3 -12 -1 -5 -5 -14 -9 -20 -6 -9 -2 -13 12
-13 16 0 21 6 21 25 0 21 -17 37 -21 20z"/>
<path d="M7286 8655 c-4 -12 -1 -16 11 -13 18 3 21 20 5 26 -5 1 -12 -4 -16
-13z"/>
<path d="M6971 8434 c0 -11 3 -14 6 -6 3 7 2 16 -1 19 -3 4 -6 -2 -5 -13z"/>
<path d="M7770 8465 c-10 -13 -9 -15 9 -15 11 0 21 4 21 9 0 18 -18 21 -30 6z"/>
<path d="M7966 8465 c-9 -24 -7 -45 3 -45 5 0 13 9 16 21 8 26 -9 48 -19 24z"/>
<path d="M8057 8464 c-9 -10 2 -24 19 -24 8 0 14 7 14 15 0 15 -21 21 -33 9z"/>
<path d="M8185 8457 c-4 -10 -5 -21 -1 -24 10 -10 18 4 13 24 -4 17 -4 17 -12
0z"/>
<path d="M8054 8259 c-10 -17 13 -36 27 -22 12 12 4 33 -11 33 -5 0 -12 -5
-16 -11z"/>
<path d="M7970 8244 c0 -9 5 -14 12 -12 18 6 21 28 4 28 -9 0 -16 -7 -16 -16z"/>
<path d="M7581 8044 c0 -11 3 -14 6 -6 3 7 2 16 -1 19 -3 4 -6 -2 -5 -13z"/>
<path d="M8527 8045 c-5 -11 0 -15 19 -15 16 0 24 5 22 13 -7 18 -35 20 -41 2z"/>
<path d="M8610 8030 c0 -5 5 -10 10 -10 6 0 10 5 10 10 0 6 -4 10 -10 10 -5 0
-10 -4 -10 -10z"/>
<path d="M1160 8035 c0 -8 5 -15 10 -15 6 0 10 7 10 15 0 8 -4 15 -10 15 -5 0
-10 -7 -10 -15z"/>
<path d="M7760 8050 c0 -5 4 -10 9 -10 5 0 16 -3 25 -6 11 -4 16 -1 16 10 0
10 -9 16 -25 16 -14 0 -25 -4 -25 -10z"/>
<path d="M8711 8047 c-13 -16 -5 -27 21 -27 23 0 24 20 1 21 -15 0 -15 2 2 9
15 7 16 9 4 9 -9 1 -22 -5 -28 -12z"/>
<path d="M8911 8049 c7 -14 14 -18 21 -11 13 13 2 32 -18 32 -12 0 -13 -4 -3
-21z"/>
<path d="M7403 7853 c-13 -2 -23 -11 -23 -19 0 -22 43 -14 46 9 1 9 2 16 1 16
-1 -1 -12 -4 -24 -6z"/>
<path d="M8050 7833 c1 -27 1 -27 15 -9 14 19 12 36 -6 36 -5 0 -9 -12 -9 -27z"/>
<path d="M8340 7838 c0 -12 1 -19 3 -17 1 2 9 12 16 22 12 14 11 17 -3 17 -10
0 -16 -8 -16 -22z"/>
<path d="M7770 7836 c0 -9 7 -16 16 -16 9 0 14 5 12 12 -6 18 -28 21 -28 4z"/>
<path d="M8522 7028 c-18 -18 -15 -67 4 -75 27 -10 49 11 49 48 0 26 -4 35
-20 37 -11 1 -26 -3 -33 -10z"/>
<path d="M8990 6210 c-23 -18 -23 -20 -5 -20 29 0 52 17 40 29 -7 7 -19 3 -35
-9z"/>
<path d="M880 4481 c-86 -61 -96 -72 -107 -112 -15 -57 -15 -155 0 -198 9 -26
28 -43 77 -73 36 -22 78 -52 94 -67 l28 -29 45 31 c25 16 67 42 94 57 40 22
55 38 85 95 42 79 42 97 -4 198 -22 47 -38 70 -56 77 -14 5 -54 27 -89 50 -35
22 -66 40 -68 40 -2 0 -47 -31 -99 -69z m159 -137 c30 -38 26 -65 -16 -144
-39 -71 -49 -80 -71 -58 -18 18 -15 31 14 73 23 34 25 44 19 97 -6 54 -6 58
13 58 11 0 30 -12 41 -26z"/>
<path d="M1662 3940 c0 -19 2 -27 5 -17 2 9 2 25 0 35 -3 9 -5 1 -5 -18z"/>
<path d="M491 3084 c0 -11 3 -14 6 -6 3 7 2 16 -1 19 -3 4 -6 -2 -5 -13z"/>
<path d="M8078 3073 c6 -2 18 -2 25 0 6 3 1 5 -13 5 -14 0 -19 -2 -12 -5z"/>
<path d="M8282 3073 c-16 -6 -5 -23 16 -23 14 0 14 2 3 9 -11 7 -10 10 5 14
11 3 13 5 4 5 -8 0 -21 -2 -28 -5z"/>
<path d="M8388 3053 c6 -2 18 -2 25 0 6 3 1 5 -13 5 -14 0 -19 -2 -12 -5z"/>
<path d="M7770 3071 c0 -10 30 -24 37 -17 3 3 2 9 -2 15 -8 13 -35 15 -35 2z"/>
<path d="M2250 2920 c0 -5 5 -10 11 -10 5 0 7 5 4 10 -3 6 -8 10 -11 10 -2 0
-4 -4 -4 -10z"/>
<path d="M745 2920 c-8 -13 5 -13 25 0 13 8 13 10 -2 10 -9 0 -20 -4 -23 -10z"/>
<path d="M1830 2896 c0 -22 3 -27 11 -19 8 8 8 16 0 30 -9 16 -10 14 -11 -11z"/>
<path d="M2132 2928 c-18 -18 -15 -28 8 -28 13 0 20 7 20 20 0 23 -10 26 -28
8z"/>
<path d="M2040 2910 c0 -5 7 -10 15 -10 8 0 15 5 15 10 0 6 -7 10 -15 10 -8 0
-15 -4 -15 -10z"/>
<path d="M8571 2891 c-14 -26 5 -40 25 -19 13 13 13 16 0 27 -12 10 -17 9 -25
-8z"/>
<path d="M7856 2885 c-16 -12 -17 -15 -4 -15 9 0 18 -4 20 -9 2 -5 9 -3 16 5
8 9 9 14 2 14 -6 0 -8 5 -5 10 9 15 -7 12 -29 -5z"/>
<path d="M9480 2710 c0 -5 11 -10 25 -10 14 0 25 5 25 10 0 6 -11 10 -25 10
-14 0 -25 -4 -25 -10z"/>
<path d="M1246 2731 c-4 -7 -5 -15 -2 -18 9 -9 19 4 14 18 -4 11 -6 11 -12 0z"/>
<path d="M1240 2679 c0 -11 5 -17 10 -14 6 3 10 13 10 21 0 8 -4 14 -10 14 -5
0 -10 -9 -10 -21z"/>
<path d="M1937 2724 c-13 -13 -7 -24 14 -24 11 0 19 5 17 12 -5 14 -22 21 -31
12z"/>
<path d="M2830 2510 c0 -5 9 -10 20 -10 11 0 20 5 20 10 0 6 -9 10 -20 10 -11
0 -20 -4 -20 -10z"/>
<path d="M2248 2523 c7 -3 16 -2 19 1 4 3 -2 6 -13 5 -11 0 -14 -3 -6 -6z"/>
<path d="M2340 2521 c0 -5 -3 -16 -6 -25 -4 -11 -1 -16 10 -16 10 0 16 9 16
25 0 14 -4 25 -10 25 -5 0 -10 -4 -10 -9z"/>
<path d="M2650 2526 c0 -9 5 -16 10 -16 6 0 10 4 10 9 0 6 -4 13 -10 16 -5 3
-10 -1 -10 -9z"/>
<path d="M2640 2490 c0 -5 7 -10 15 -10 8 0 15 5 15 10 0 6 -7 10 -15 10 -8 0
-15 -4 -15 -10z"/>
<path d="M1032 2508 c2 -12 10 -23 18 -23 22 0 19 39 -3 43 -15 3 -18 -1 -15
-20z"/>
<path d="M1929 2511 c11 -7 11 -9 0 -14 -8 -3 -4 -6 9 -6 13 -1 22 5 22 14 0
9 -9 15 -22 15 -17 0 -19 -3 -9 -9z"/>
<path d="M2124 2519 c-9 -16 12 -33 31 -25 14 5 15 9 5 21 -15 18 -26 19 -36
4z"/>
<path d="M8055 2510 c-3 -5 3 -10 14 -10 12 0 21 5 21 10 0 6 -6 10 -14 10 -8
0 -18 -4 -21 -10z"/>
<path d="M8168 2513 c6 -2 18 -2 25 0 6 3 1 5 -13 5 -14 0 -19 -2 -12 -5z"/>
<path d="M8576 2533 c-11 -11 -6 -23 9 -23 8 0 15 4 15 9 0 13 -16 22 -24 14z"/>
<path d="M2450 2305 c0 -8 5 -15 10 -15 6 0 10 7 10 15 0 8 -4 15 -10 15 -5 0
-10 -7 -10 -15z"/>
<path d="M2540 2316 c0 -14 5 -26 10 -26 6 0 10 9 10 19 0 11 -4 23 -10 26 -6
4 -10 -5 -10 -19z"/>
<path d="M2640 2320 c0 -5 7 -10 15 -10 8 0 15 5 15 10 0 6 -7 10 -15 10 -8 0
-15 -4 -15 -10z"/>
<path d="M2645 2290 c3 -5 10 -10 16 -10 5 0 9 5 9 10 0 6 -7 10 -16 10 -8 0
-12 -4 -9 -10z"/>
<path d="M850 2311 c0 -5 7 -14 15 -21 13 -10 15 -9 15 9 0 12 -6 21 -15 21
-8 0 -15 -4 -15 -9z"/>
<path d="M8270 2275 c0 -12 7 -15 25 -13 14 2 26 8 26 13 0 6 -12 11 -26 13
-18 2 -25 -1 -25 -13z"/>
<path d="M8577 2303 c-12 -11 -8 -23 8 -23 8 0 15 7 15 15 0 16 -12 20 -23 8z"/>
<path d="M762 2095 c-2 -28 18 -34 38 -10 14 17 5 35 -18 35 -12 0 -18 -9 -20
-25z"/>
<path d="M1733 2115 c-3 -9 -3 -18 0 -21 9 -9 27 6 27 22 0 19 -19 18 -27 -1z"/>
<path d="M8150 2110 c0 -5 12 -10 26 -10 14 0 23 4 19 10 -3 6 -15 10 -26 10
-10 0 -19 -4 -19 -10z"/>
<path d="M8563 2094 c-8 -22 15 -43 27 -24 5 8 10 21 10 28 0 17 -30 15 -37
-4z"/>
<path d="M8657 2104 c-14 -15 -6 -34 14 -34 14 0 19 5 17 17 -3 18 -20 27 -31
17z"/>
<path d="M8760 2079 c0 -25 33 -22 38 4 2 12 -3 17 -17 17 -15 0 -21 -6 -21
-21z"/>
<path d="M9172 2084 c4 -21 22 -23 26 -1 2 10 -3 17 -13 17 -10 0 -15 -6 -13
-16z"/>
<path d="M9380 2096 c0 -20 27 -40 33 -24 2 7 2 19 -1 26 -6 16 -32 15 -32 -2z"/>
<path d="M9493 2103 c-14 -5 -17 -29 -5 -37 4 -2 14 -1 21 3 16 11 2 40 -16
34z"/>
<path d="M2235 1890 c3 -5 13 -10 21 -10 8 0 12 5 9 10 -3 6 -13 10 -21 10 -8
0 -12 -4 -9 -10z"/>
<path d="M940 1889 c0 -5 5 -7 10 -4 6 3 10 8 10 11 0 2 -4 4 -10 4 -5 0 -10
-5 -10 -11z"/>
<path d="M1640 1890 c0 -21 4 -30 13 -27 6 2 12 14 12 27 0 13 -6 25 -12 28
-9 2 -13 -7 -13 -28z"/>
<path d="M1939 1927 c-10 -29 -7 -47 9 -47 22 0 27 36 6 44 -8 3 -14 4 -15 3z"/>
<path d="M2140 1895 c0 -9 6 -12 15 -9 8 4 15 10 15 15 0 5 -7 9 -15 9 -8 0
-15 -7 -15 -15z"/>
<path d="M2640 1910 c0 -5 7 -10 15 -10 8 0 15 5 15 10 0 6 -7 10 -15 10 -8 0
-15 -4 -15 -10z"/>
<path d="M2638 1883 c6 -2 18 -2 25 0 6 3 1 5 -13 5 -14 0 -19 -2 -12 -5z"/>
<path d="M1525 1911 c-3 -6 0 -11 7 -11 9 0 9 -3 -2 -11 -12 -8 -10 -9 10 -7
14 2 25 9 25 18 0 18 -30 26 -40 11z"/>
<path d="M940 1680 c0 -5 5 -10 10 -10 6 0 10 5 10 10 0 6 -4 10 -10 10 -5 0
-10 -4 -10 -10z"/>
<path d="M1634 1700 c0 -11 4 -20 8 -20 4 0 8 9 8 20 0 11 -4 20 -8 20 -4 0
-8 -9 -8 -20z"/>
<path d="M2126 1482 c-3 -6 -1 -14 5 -17 15 -10 25 3 12 16 -7 7 -13 7 -17 1z"/>
<path d="M1140 1506 c0 -9 7 -16 16 -16 17 0 14 22 -4 28 -7 2 -12 -3 -12 -12z"/>
<path d="M1148 1473 c7 -3 16 -2 19 1 4 3 -2 6 -13 5 -11 0 -14 -3 -6 -6z"/>
<path d="M6955 1269 c-4 -6 -38 -30 -75 -54 -51 -33 -76 -56 -95 -92 -15 -26
-41 -68 -57 -92 l-29 -43 50 -84 c34 -57 44 -81 32 -74 -11 5 -21 15 -24 22
-3 10 -7 10 -17 1 -10 -9 -6 -18 20 -44 30 -31 33 -32 45 -15 8 10 16 13 19 7
3 -5 21 -12 39 -16 17 -4 58 -20 90 -37 l59 -29 41 27 c23 14 55 38 70 53 16
14 39 26 52 26 22 1 95 68 95 88 0 4 7 7 16 7 8 0 13 4 10 9 -3 5 1 14 9 21 8
7 15 18 15 24 0 6 -4 5 -9 -3 -5 -8 -14 -10 -21 -6 -8 5 -11 4 -7 -1 3 -6 2
-16 -2 -23 -6 -9 -8 -5 -8 12 0 15 -30 72 -68 131 -65 101 -70 106 -148 150
-87 50 -92 51 -102 35z m15 -154 c39 -20 74 -72 73 -110 -1 -37 -53 -154 -77
-174 -15 -12 -19 -12 -33 2 -15 15 -14 21 10 84 33 84 33 107 2 158 -37 59
-31 69 25 40z"/>
<path d="M6895 734 c51 -24 85 -31 85 -16 0 8 -102 43 -123 41 -7 0 11 -11 38
-25z"/>
</g>
</svg>
